<?xml version="1.0" encoding="UTF-8" standalone="no"?>
<svg width="127px" height="188px" viewBox="0 0 127 188" version="1.1" xmlns="http://www.w3.org/2000/svg" xmlns:xlink="http://www.w3.org/1999/xlink">
    <!-- Generator: Sketch 44.1 (41455) - http://www.bohemiancoding.com/sketch -->
    <title>mouse</title>
    <desc>Created with Sketch.</desc>
    <defs></defs>
    <g id="Page-1" stroke="none" stroke-width="1" fill="none" fill-rule="evenodd">
        <g id="Desktop-HD-Copy" transform="translate(-657.000000, -881.000000)">
            <g id="services-section" transform="translate(0.000000, 810.000000)">
                <g id="Group-2" transform="translate(540.000000, 76.000000)">
                    <g id="mouse" transform="translate(120.000000, 0.000000)">
                        <ellipse id="Oval-16" stroke="#F26648" stroke-width="9" cx="77.2943925" cy="115.14375" rx="41.7056075" ry="62.85625"></ellipse>
                        <path d="M78.0579092,51.7138672 C78.0579092,51.7138672 82.1958875,9.19876709 69.9502957,3.08001709 C57.7047039,-3.03873291 45.7719042,0.939758301 41.5904826,6.76843262 C37.409061,12.5971069 32.3544283,38.8614502 24.9321335,42.392334 C17.5098386,45.9232178 7.77635806,44.9074097 0.801529644,37.0112671" id="Path-2" stroke="#F26648" stroke-width="9"></path>
                        <path d="M36.5803793,100.397693 C36.5803793,100.397693 57.4778709,108.760607 77.8504673,108.538824 C98.2230637,108.317042 115.420269,99.5394165 115.420269,99.5394165" id="Path-3" stroke="#F26648" stroke-width="9"></path>
                        <path d="M78.4065421,50.61875 L78.4065421,107.35625" id="Line" stroke="#F26648" stroke-width="9" stroke-linecap="square"></path>
                        <rect id="Rectangle-16" fill="#F26648" x="70.0654206" y="67.8625" width="16.682243" height="25.5875"></rect>
                    </g>
                </g>
            </g>
        </g>
    </g>
</svg>