<?xml version="1.0" encoding="UTF-8"?>
<svg width="323px" height="126px" viewBox="0 0 323 126" version="1.1" xmlns="http://www.w3.org/2000/svg" xmlns:xlink="http://www.w3.org/1999/xlink">
    <!-- Generator: Sketch 46.2 (44496) - http://www.bohemiancoding.com/sketch -->
    <title>NijelLogo_Gray_Tagline-01</title>
    <desc>Created with Sketch.</desc>
    <defs></defs>
    <g id="Page-1" stroke="none" stroke-width="1" fill="none" fill-rule="evenodd">
        <g id="NijelLogo_Gray_Tagline-01">
            <path d="M104.732,72.987 C104.732,101.876 81.312,125.296 52.423,125.296 C23.533,125.296 0.113,101.876 0.113,72.987 C0.113,44.097 23.533,20.677 52.423,20.677 C81.312,20.677 104.732,44.097 104.732,72.987" id="Fill-1" fill="#787976"></path>
            <path d="M57.057,95.148 C57.057,95.95 56.408,96.598 55.607,96.598 C54.806,96.598 54.157,95.95 54.157,95.148 C54.157,94.347 54.806,93.699 55.607,93.699 C56.408,93.699 57.057,94.347 57.057,95.148" id="Fill-2" fill="#FFFFFE"></path>
            <path d="M32.248,98.844 C32.248,100.888 30.589,102.547 28.543,102.547 C26.5,102.547 24.843,100.888 24.843,98.844 C24.843,96.801 26.5,95.142 28.543,95.142 C30.589,95.142 32.248,96.801 32.248,98.844" id="Fill-3" fill="#FFFFFE"></path>
            <path d="M36.595,103.481 C36.595,104.683 35.62,105.655 34.421,105.655 C33.22,105.655 32.248,104.683 32.248,103.481 C32.248,102.281 33.22,101.307 34.421,101.307 C35.62,101.307 36.595,102.281 36.595,103.481" id="Fill-4" fill="#FFFFFE"></path>
            <path d="M36.588,95.253 C36.588,96.454 35.616,97.425 34.418,97.425 C33.218,97.425 32.248,96.454 32.248,95.253 C32.248,94.056 33.218,93.083 34.418,93.083 C35.616,93.083 36.588,94.056 36.588,95.253" id="Fill-5" fill="#FFFFFE"></path>
            <path d="M35.371,87.248 C35.371,90.154 33.012,92.511 30.106,92.511 C27.199,92.511 24.843,90.154 24.843,87.248 C24.843,84.342 27.199,81.984 30.106,81.984 C33.012,81.984 35.371,84.342 35.371,87.248" id="Fill-6" fill="#FFFFFE"></path>
            <path d="M36.475,77.222 C36.475,79.411 34.699,81.186 32.508,81.186 C30.32,81.186 28.543,79.411 28.543,77.222 C28.543,75.032 30.32,73.257 32.508,73.257 C34.699,73.257 36.475,75.032 36.475,77.222" id="Fill-7" fill="#FFFFFE"></path>
            <path d="M28.871,70.541 C28.871,71.654 27.969,72.554 26.856,72.554 C25.745,72.554 24.843,71.654 24.843,70.541 C24.843,69.429 25.745,68.527 26.856,68.527 C27.969,68.527 28.871,69.429 28.871,70.541" id="Fill-8" fill="#FFFFFE"></path>
            <path d="M28.809,79.204 C28.809,80.299 27.919,81.186 26.825,81.186 C25.73,81.186 24.843,80.299 24.843,79.204 C24.843,78.11 25.73,77.222 26.825,77.222 C27.919,77.222 28.809,78.11 28.809,79.204" id="Fill-9" fill="#FFFFFE"></path>
            <path d="M36.785,69.216 C36.785,71.059 35.29,72.554 33.446,72.554 C31.6,72.554 30.106,71.059 30.106,69.216 C30.106,67.372 31.6,65.878 33.446,65.878 C35.29,65.878 36.785,67.372 36.785,69.216" id="Fill-10" fill="#FFFFFE"></path>
            <path d="M31.821,64.009 C31.821,65.589 30.54,66.871 28.958,66.871 C27.378,66.871 26.095,65.589 26.095,64.009 C26.095,62.427 27.378,61.144 28.958,61.144 C30.54,61.144 31.821,62.427 31.821,64.009" id="Fill-11" fill="#E1604D"></path>
            <path d="M40.561,60.429 C40.561,62.842 38.605,64.8 36.191,64.8 C33.778,64.8 31.821,62.842 31.821,60.429 C31.821,58.016 33.778,56.059 36.191,56.059 C38.605,56.059 40.561,58.016 40.561,60.429" id="Fill-12" fill="#FFFFFE"></path>
            <path d="M31.678,54.271 C31.678,55.953 30.316,57.315 28.637,57.315 C26.955,57.315 25.592,55.953 25.592,54.271 C25.592,52.59 26.955,51.229 28.637,51.229 C30.316,51.229 31.678,52.59 31.678,54.271" id="Fill-13" fill="#FFFFFE"></path>
            <path d="M27.615,59.288 C27.615,59.919 27.105,60.429 26.475,60.429 C25.846,60.429 25.334,59.919 25.334,59.288 C25.334,58.66 25.846,58.148 26.475,58.148 C27.105,58.148 27.615,58.66 27.615,59.288" id="Fill-14" fill="#FFFFFE"></path>
            <path d="M27.615,93.823 C27.615,94.588 26.995,95.209 26.228,95.209 C25.464,95.209 24.843,94.588 24.843,93.823 C24.843,93.055 25.464,92.437 26.228,92.437 C26.995,92.437 27.615,93.055 27.615,93.823" id="Fill-15" fill="#E1604D"></path>
            <path d="M31.56,105.264 C31.56,106.025 30.943,106.642 30.185,106.642 C29.422,106.642 28.809,106.025 28.809,105.264 C28.809,104.505 29.422,103.889 30.185,103.889 C30.943,103.889 31.56,104.505 31.56,105.264" id="Fill-16" fill="#FFFFFE"></path>
            <path d="M39.776,51.23 C39.776,52.978 38.358,54.395 36.611,54.395 C34.863,54.395 33.446,52.978 33.446,51.23 C33.446,49.483 34.863,48.065 36.611,48.065 C38.358,48.065 39.776,49.483 39.776,51.23" id="Fill-17" fill="#E1604D"></path>
            <path d="M35.348,43.804 C35.348,46.157 33.441,48.065 31.086,48.065 C28.734,48.065 26.825,46.157 26.825,43.804 C26.825,41.45 28.734,39.542 31.086,39.542 C33.441,39.542 35.348,41.45 35.348,43.804" id="Fill-18" fill="#FFFFFE"></path>
            <path d="M27.615,48.826 C27.615,49.246 27.275,49.585 26.855,49.585 C26.435,49.585 26.095,49.246 26.095,48.826 C26.095,48.406 26.435,48.065 26.855,48.065 C27.275,48.065 27.615,48.406 27.615,48.826" id="Fill-19" fill="#E1604D"></path>
            <path d="M39.776,45.705 C39.776,46.531 39.106,47.199 38.278,47.199 C37.455,47.199 36.785,46.531 36.785,45.705 C36.785,44.878 37.455,44.211 38.278,44.211 C39.106,44.211 39.776,44.878 39.776,45.705" id="Fill-20" fill="#FFFFFE"></path>
            <path d="M44.798,55.195 C44.798,56.366 43.85,57.315 42.681,57.315 C41.51,57.315 40.561,56.366 40.561,55.195 C40.561,54.025 41.51,53.077 42.681,53.077 C43.85,53.077 44.798,54.025 44.798,55.195" id="Fill-21" fill="#FFFFFE"></path>
            <path d="M48.522,62.921 C48.522,64.766 47.025,66.262 45.183,66.262 C43.339,66.262 41.844,64.766 41.844,62.921 C41.844,61.078 43.339,59.584 45.183,59.584 C47.025,59.584 48.522,61.078 48.522,62.921" id="Fill-22" fill="#FFFFFE"></path>
            <path d="M43.112,67.547 C43.112,68.469 42.366,69.216 41.444,69.216 C40.523,69.216 39.776,68.469 39.776,67.547 C39.776,66.624 40.523,65.878 41.444,65.878 C42.366,65.878 43.112,66.624 43.112,67.547" id="Fill-23" fill="#E1604D"></path>
            <path d="M51.608,70.952 C51.608,72.831 50.082,74.356 48.203,74.356 C46.324,74.356 44.798,72.831 44.798,70.952 C44.798,69.07 46.324,67.547 48.203,67.547 C50.082,67.547 51.608,69.07 51.608,70.952" id="Fill-24" fill="#FFFFFE"></path>
            <path d="M43.891,71.765 C43.891,72.44 43.344,72.987 42.668,72.987 C41.993,72.987 41.444,72.44 41.444,71.765 C41.444,71.09 41.993,70.541 42.668,70.541 C43.344,70.541 43.891,71.09 43.891,71.765" id="Fill-25" fill="#FFFFFE"></path>
            <path d="M54.228,79.885 C54.228,82.384 52.203,84.409 49.704,84.409 C47.208,84.409 45.183,82.384 45.183,79.885 C45.183,77.388 47.208,75.362 49.704,75.362 C52.203,75.362 54.228,77.388 54.228,79.885" id="Fill-26" fill="#FFFFFE"></path>
            <path d="M54.311,87.802 C54.311,89.073 53.277,90.103 52.007,90.103 C50.735,90.103 49.704,89.073 49.704,87.802 C49.704,86.53 50.735,85.499 52.007,85.499 C53.277,85.499 54.311,86.53 54.311,87.802" id="Fill-27" fill="#FFFFFE"></path>
            <path d="M61.086,88.239 C61.086,89.752 59.858,90.978 58.347,90.978 C56.832,90.978 55.607,89.752 55.607,88.239 C55.607,86.726 56.832,85.499 58.347,85.499 C59.858,85.499 61.086,86.726 61.086,88.239" id="Fill-28" fill="#FFFFFE"></path>
            <path d="M55.613,91.71 C55.613,92.109 55.286,92.437 54.885,92.437 C54.484,92.437 54.157,92.109 54.157,91.71 C54.157,91.304 54.484,90.978 54.885,90.978 C55.286,90.978 55.613,91.304 55.613,91.71" id="Fill-29" fill="#E1604D"></path>
            <path d="M66.634,96.08 C66.634,98.096 65.003,99.727 62.989,99.727 C60.975,99.727 59.343,98.096 59.343,96.08 C59.343,94.068 60.975,92.437 62.989,92.437 C65.003,92.437 66.634,94.068 66.634,96.08" id="Fill-30" fill="#FFFFFE"></path>
            <path d="M59.36,98.576 C59.36,99.212 58.845,99.727 58.208,99.727 C57.572,99.727 57.057,99.212 57.057,98.576 C57.057,97.939 57.572,97.425 58.208,97.425 C58.845,97.425 59.36,97.939 59.36,98.576" id="Fill-31" fill="#E1604D"></path>
            <path d="M69.534,104.972 C69.534,106.996 67.895,108.637 65.87,108.637 C63.847,108.637 62.205,106.996 62.205,104.972 C62.205,102.948 63.847,101.307 65.87,101.307 C67.895,101.307 69.534,102.948 69.534,104.972" id="Fill-32" fill="#FFFFFE"></path>
            <path d="M75.813,98.844 C75.813,100.888 74.156,102.547 72.111,102.547 C70.068,102.547 68.409,100.888 68.409,98.844 C68.409,96.801 70.068,95.142 72.111,95.142 C74.156,95.142 75.813,96.801 75.813,98.844" id="Fill-33" fill="#FFFFFE"></path>
            <path d="M77.652,107.079 C77.652,108.838 76.222,110.267 74.464,110.267 C72.703,110.267 71.272,108.838 71.272,107.079 C71.272,105.315 72.703,103.889 74.464,103.889 C76.222,103.889 77.652,105.315 77.652,107.079" id="Fill-34" fill="#FFFFFE"></path>
            <path d="M71.165,107.165 C71.165,107.613 70.8,107.979 70.35,107.979 C69.899,107.979 69.534,107.613 69.534,107.165 C69.534,106.714 69.899,106.349 70.35,106.349 C70.8,106.349 71.165,106.714 71.165,107.165" id="Fill-35" fill="#FFFFFE"></path>
            <path d="M78.393,102.598 C78.393,103.312 77.815,103.889 77.104,103.889 C76.392,103.889 75.813,103.312 75.813,102.598 C75.813,101.885 76.392,101.307 77.104,101.307 C77.815,101.307 78.393,101.885 78.393,102.598" id="Fill-36" fill="#E1604D"></path>
            <path d="M73.312,91.141 C73.312,92.985 71.818,94.479 69.975,94.479 C68.131,94.479 66.634,92.985 66.634,91.141 C66.634,89.295 68.131,87.802 69.975,87.802 C71.818,87.802 73.312,89.295 73.312,91.141" id="Fill-37" fill="#E1604D"></path>
            <path d="M77.962,92.73 C77.962,93.695 77.179,94.479 76.214,94.479 C75.247,94.479 74.464,93.695 74.464,92.73 C74.464,91.762 75.247,90.978 76.214,90.978 C77.179,90.978 77.962,91.762 77.962,92.73" id="Fill-38" fill="#FFFFFE"></path>
            <path d="M78.132,83.503 C78.132,85.878 76.207,87.802 73.833,87.802 C71.46,87.802 69.534,85.878 69.534,83.503 C69.534,81.129 71.46,79.204 73.833,79.204 C76.207,79.204 78.132,81.129 78.132,83.503" id="Fill-39" fill="#FFFFFE"></path>
            <path d="M68.765,83.196 C68.765,83.866 68.223,84.409 67.553,84.409 C66.883,84.409 66.342,83.866 66.342,83.196 C66.342,82.527 66.883,81.984 67.553,81.984 C68.223,81.984 68.765,82.527 68.765,83.196" id="Fill-40" fill="#E1604D"></path>
            <path d="M67.62,86.373 C67.62,86.856 67.227,87.248 66.745,87.248 C66.261,87.248 65.87,86.856 65.87,86.373 C65.87,85.891 66.261,85.499 66.745,85.499 C67.227,85.499 67.62,85.891 67.62,86.373" id="Fill-41" fill="#FFFFFE"></path>
            <path d="M73.199,76.221 C73.199,78.243 71.561,79.885 69.534,79.885 C67.512,79.885 65.87,78.243 65.87,76.221 C65.87,74.195 67.512,72.554 69.534,72.554 C71.561,72.554 73.199,74.195 73.199,76.221" id="Fill-42" fill="#FFFFFE"></path>
            <path d="M77.517,75.382 C77.517,76.399 76.694,77.222 75.677,77.222 C74.658,77.222 73.835,76.399 73.835,75.382 C73.835,74.363 74.658,73.539 75.677,73.539 C76.694,73.539 77.517,74.363 77.517,75.382" id="Fill-43" fill="#FFFFFE"></path>
            <path d="M77.028,69.216 C77.028,71.059 75.533,72.554 73.69,72.554 C71.844,72.554 70.35,71.059 70.35,69.216 C70.35,67.372 71.844,65.878 73.69,65.878 C75.533,65.878 77.028,67.372 77.028,69.216" id="Fill-44" fill="#FFFFFE"></path>
            <path d="M69.537,69.044 C69.537,69.871 68.867,70.541 68.04,70.541 C67.213,70.541 66.543,69.871 66.543,69.044 C66.543,68.217 67.213,67.547 68.04,67.547 C68.867,67.547 69.537,68.217 69.537,69.044" id="Fill-45" fill="#FFFFFE"></path>
            <path d="M73.395,61.472 C73.395,63.309 71.907,64.8 70.07,64.8 C68.232,64.8 66.745,63.309 66.745,61.472 C66.745,59.637 68.232,58.148 70.07,58.148 C71.907,58.148 73.395,59.637 73.395,61.472" id="Fill-46" fill="#FFFFFE"></path>
            <path d="M77.789,63.136 C77.789,64.054 77.044,64.8 76.126,64.8 C75.207,64.8 74.464,64.054 74.464,63.136 C74.464,62.217 75.207,61.472 76.126,61.472 C77.044,61.472 77.789,62.217 77.789,63.136" id="Fill-47" fill="#E1604D"></path>
            <path d="M79.839,53.45 C79.839,55.585 78.109,57.315 75.976,57.315 C73.842,57.315 72.111,55.585 72.111,53.45 C72.111,51.317 73.842,49.585 75.976,49.585 C78.109,49.585 79.839,51.317 79.839,53.45" id="Fill-48" fill="#FFFFFE"></path>
            <path d="M75.898,58.865 C75.898,59.262 75.576,59.584 75.181,59.584 C74.784,59.584 74.464,59.262 74.464,58.865 C74.464,58.47 74.784,58.148 75.181,58.148 C75.576,58.148 75.898,58.47 75.898,58.865" id="Fill-49" fill="#CBCCCB"></path>
            <path d="M70.601,54.569 C70.601,55.392 69.935,56.059 69.11,56.059 C68.287,56.059 67.62,55.392 67.62,54.569 C67.62,53.744 68.287,53.077 69.11,53.077 C69.935,53.077 70.601,53.744 70.601,54.569" id="Fill-50" fill="#FFFFFE"></path>
            <path d="M70.662,49.213 C70.662,50.325 69.76,51.229 68.649,51.229 C67.536,51.229 66.634,50.325 66.634,49.213 C66.634,48.101 67.536,47.199 68.649,47.199 C69.76,47.199 70.662,48.101 70.662,49.213" id="Fill-51" fill="#CBCCCB"></path>
            <path d="M76.279,46.711 C76.279,48.093 75.159,49.213 73.777,49.213 C72.396,49.213 71.272,48.093 71.272,46.711 C71.272,45.328 72.396,44.211 73.777,44.211 C75.159,44.211 76.279,45.328 76.279,46.711" id="Fill-52" fill="#FFFFFE"></path>
            <path d="M77.367,41.946 C77.367,42.922 76.573,43.71 75.6,43.71 C74.625,43.71 73.835,42.922 73.835,41.946 C73.835,40.971 74.625,40.179 75.6,40.179 C76.573,40.179 77.367,40.971 77.367,41.946" id="Fill-53" fill="#FFFFFE"></path>
            <path d="M72.27,42.941 C72.27,44.467 71.034,45.705 69.508,45.705 C67.982,45.705 66.745,44.467 66.745,42.941 C66.745,41.415 67.982,40.179 69.508,40.179 C71.034,40.179 72.27,41.415 72.27,42.941" id="Fill-54" fill="#FFFFFE"></path>
            <path d="M74.295,38.614 C74.295,39.479 73.594,40.179 72.728,40.179 C71.868,40.179 71.165,39.479 71.165,38.614 C71.165,37.751 71.868,37.049 72.728,37.049 C73.594,37.049 74.295,37.751 74.295,38.614" id="Fill-55" fill="#CBCCCB"></path>
            <path d="M77.635,35.379 C77.635,36.301 76.887,37.049 75.965,37.049 C75.041,37.049 74.295,36.301 74.295,35.379 C74.295,34.457 75.041,33.709 75.965,33.709 C76.887,33.709 77.635,34.457 77.635,35.379" id="Fill-56" fill="#FFFFFE"></path>
            <path d="M71.18,35.843 C71.18,37.373 69.941,38.614 68.409,38.614 C66.879,38.614 65.638,37.373 65.638,35.843 C65.638,34.311 66.879,33.072 68.409,33.072 C69.941,33.072 71.18,34.311 71.18,35.843" id="Fill-57" fill="#FFFFFE"></path>
            <path d="M74.822,29.812 C74.822,30.821 74.003,31.639 72.994,31.639 C71.983,31.639 71.165,30.821 71.165,29.812 C71.165,28.801 71.983,27.98 72.994,27.98 C74.003,27.98 74.822,28.801 74.822,29.812" id="Fill-58" fill="#CBCCCB"></path>
            <path d="M73.366,33.391 C73.366,33.566 73.222,33.709 73.048,33.709 C72.871,33.709 72.728,33.566 72.728,33.391 C72.728,33.215 72.871,33.072 73.048,33.072 C73.222,33.072 73.366,33.215 73.366,33.391" id="Fill-59" fill="#FFFFFE"></path>
            <path d="M70.557,27.703 C70.557,28.866 69.613,29.812 68.449,29.812 C67.284,29.812 66.342,28.866 66.342,27.703 C66.342,26.54 67.284,25.595 68.449,25.595 C69.613,25.595 70.557,26.54 70.557,27.703" id="Fill-60" fill="#FFFFFE"></path>
            <path d="M68.955,31.639 C68.955,32.147 68.544,32.555 68.04,32.555 C67.534,32.555 67.125,32.147 67.125,31.639 C67.125,31.135 67.534,30.725 68.04,30.725 C68.544,30.725 68.955,31.135 68.955,31.639" id="Fill-61" fill="#CBCCCB"></path>
            <path d="M79.57,29.812 C79.57,30.795 78.77,31.59 77.789,31.59 C76.806,31.59 76.008,30.795 76.008,29.812 C76.008,28.829 76.806,28.033 77.789,28.033 C78.77,28.033 79.57,28.829 79.57,29.812" id="Fill-62" fill="#FFFFFE"></path>
            <path d="M76.88,24.9 C76.88,26.448 75.626,27.703 74.078,27.703 C72.53,27.703 71.272,26.448 71.272,24.9 C71.272,23.35 72.53,22.096 74.078,22.096 C75.626,22.096 76.88,23.35 76.88,24.9" id="Fill-63" fill="#FFFFFE"></path>
            <path d="M69.91,22.096 C69.91,23.128 69.074,23.965 68.04,23.965 C67.005,23.965 66.171,23.128 66.171,22.096 C66.171,21.062 67.005,20.225 68.04,20.225 C69.074,20.225 69.91,21.062 69.91,22.096" id="Fill-64" fill="#CBCCCB"></path>
            <path d="M72.838,18.912 C72.838,19.704 72.197,20.346 71.406,20.346 C70.613,20.346 69.975,19.704 69.975,18.912 C69.975,18.122 70.613,17.481 71.406,17.481 C72.197,17.481 72.838,18.122 72.838,18.912" id="Fill-65" fill="#CBCCCB"></path>
            <path d="M79.971,15.335 C79.971,16.521 79.009,17.481 77.824,17.481 C76.638,17.481 75.677,16.521 75.677,15.335 C75.677,14.148 76.638,13.187 77.824,13.187 C79.009,13.187 79.971,14.148 79.971,15.335" id="Fill-66" fill="#CBCCCB"></path>
            <path d="M73.291,12.826 C73.291,13.543 72.71,14.125 71.995,14.125 C71.279,14.125 70.696,13.543 70.696,12.826 C70.696,12.109 71.279,11.529 71.995,11.529 C72.71,11.529 73.291,12.109 73.291,12.826" id="Fill-67" fill="#CBCCCB"></path>
            <path d="M74.726,6.48 C74.726,6.852 74.424,7.155 74.051,7.155 C73.68,7.155 73.38,6.852 73.38,6.48 C73.38,6.109 73.68,5.806 74.051,5.806 C74.424,5.806 74.726,6.109 74.726,6.48" id="Fill-68" fill="#CBCCCB"></path>
            <path d="M77.734,20.504 C77.734,21.383 77.024,22.096 76.147,22.096 C75.267,22.096 74.554,21.383 74.554,20.504 C74.554,19.626 75.267,18.912 76.147,18.912 C77.024,18.912 77.734,19.626 77.734,20.504" id="Fill-69" fill="#CBCCCB"></path>
            <path d="M77.789,10.588 C77.789,11.613 76.958,12.443 75.934,12.443 C74.909,12.443 74.078,11.613 74.078,10.588 C74.078,9.562 74.909,8.732 75.934,8.732 C76.958,8.732 77.789,9.562 77.789,10.588" id="Fill-70" fill="#CBCCCB"></path>
            <path d="M75.457,1.063 C75.457,1.604 75.019,2.044 74.475,2.044 C73.936,2.044 73.494,1.604 73.494,1.063 C73.494,0.52 73.936,0.082 74.475,0.082 C75.019,0.082 75.457,0.52 75.457,1.063" id="Fill-71" fill="#CBCCCB"></path>
            <path d="M78.447,23.357 C78.447,23.539 78.299,23.687 78.118,23.687 C77.938,23.687 77.789,23.539 77.789,23.357 C77.789,23.177 77.938,23.028 78.118,23.028 C78.299,23.028 78.447,23.177 78.447,23.357" id="Fill-72" fill="#FFFFFE"></path>
            <g id="Group" transform="translate(121.000000, 50.000000)" fill="#525351">
                <polyline id="Fill-73" points="31.511 50.983 8.006 15.191 8.006 50.983 0.291 50.983 0.291 0.117 7.363 0.117 30.868 35.838 30.868 0.117 38.583 0.117 38.583 50.983 31.511 50.983"></polyline>
                <polygon id="Fill-74" points="56.162 50.983 63.878 50.983 63.878 0.117 56.162 0.117"></polygon>
                <path d="M88.098,51.412 C82.882,51.412 79.239,49.983 75.738,46.482 L80.882,41.41 C82.668,43.196 84.383,44.482 88.098,44.482 C93.813,44.482 97.313,40.981 97.313,34.337 L97.313,0.117 L105.029,0.117 L105.029,34.909 C105.029,45.482 97.457,51.412 88.098,51.412" id="Fill-75"></path>
                <polyline id="Fill-76" points="121.893 50.983 121.893 0.117 154.399 0.117 154.399 7.047 129.609 7.047 129.609 21.907 150.756 21.907 150.756 28.765 129.609 28.765 129.609 44.054 154.399 44.054 154.399 50.983 121.893 50.983"></polyline>
                <polyline id="Fill-77" points="169.263 50.983 169.263 0.117 176.978 0.117 176.978 44.054 201.482 44.054 201.482 50.983 169.263 50.983"></polyline>
            </g>
        </g>
    </g>
</svg>