<?xml version="1.0" encoding="UTF-8" standalone="no"?>
<svg width="326px" height="126px" viewBox="0 0 326 126" version="1.1" xmlns="http://www.w3.org/2000/svg" xmlns:xlink="http://www.w3.org/1999/xlink">
    <!-- Generator: Sketch 44.1 (41455) - http://www.bohemiancoding.com/sketch -->
    <title>NijelLogo_Gray_Rev-06</title>
    <desc>Created with Sketch.</desc>
    <defs></defs>
    <g id="Page-1" stroke="none" stroke-width="1" fill="none" fill-rule="evenodd">
        <g id="NijelLogo_Gray_Rev-06">
            <path d="M104.732,72.987 C104.732,101.876 81.312,125.296 52.423,125.296 C23.533,125.296 0.113,101.876 0.113,72.987 C0.113,44.097 23.533,20.677 52.423,20.677 C81.312,20.677 104.732,44.097 104.732,72.987" id="Fill-1" fill="#787976"></path>
            <path d="M57.057,95.148 C57.057,95.95 56.408,96.598 55.607,96.598 C54.806,96.598 54.157,95.95 54.157,95.148 C54.157,94.347 54.806,93.699 55.607,93.699 C56.408,93.699 57.057,94.347 57.057,95.148" id="Fill-2" fill="#FFFFFF"></path>
            <path d="M32.248,98.844 C32.248,100.888 30.589,102.547 28.543,102.547 C26.5,102.547 24.843,100.888 24.843,98.844 C24.843,96.801 26.5,95.142 28.543,95.142 C30.589,95.142 32.248,96.801 32.248,98.844" id="Fill-3" fill="#FFFFFF"></path>
            <path d="M36.595,103.481 C36.595,104.683 35.62,105.655 34.421,105.655 C33.22,105.655 32.248,104.683 32.248,103.481 C32.248,102.281 33.22,101.307 34.421,101.307 C35.62,101.307 36.595,102.281 36.595,103.481" id="Fill-4" fill="#FFFFFF"></path>
            <path d="M36.588,95.253 C36.588,96.454 35.616,97.425 34.418,97.425 C33.218,97.425 32.248,96.454 32.248,95.253 C32.248,94.056 33.218,93.083 34.418,93.083 C35.616,93.083 36.588,94.056 36.588,95.253" id="Fill-5" fill="#FFFFFF"></path>
            <path d="M35.371,87.248 C35.371,90.154 33.012,92.511 30.106,92.511 C27.199,92.511 24.843,90.154 24.843,87.248 C24.843,84.342 27.199,81.984 30.106,81.984 C33.012,81.984 35.371,84.342 35.371,87.248" id="Fill-6" fill="#FFFFFF"></path>
            <path d="M36.475,77.222 C36.475,79.411 34.699,81.186 32.508,81.186 C30.32,81.186 28.543,79.411 28.543,77.222 C28.543,75.032 30.32,73.257 32.508,73.257 C34.699,73.257 36.475,75.032 36.475,77.222" id="Fill-7" fill="#FFFFFF"></path>
            <path d="M28.871,70.541 C28.871,71.654 27.969,72.554 26.856,72.554 C25.745,72.554 24.843,71.654 24.843,70.541 C24.843,69.429 25.745,68.527 26.856,68.527 C27.969,68.527 28.871,69.429 28.871,70.541" id="Fill-8" fill="#FFFFFF"></path>
            <path d="M28.809,79.204 C28.809,80.299 27.919,81.186 26.825,81.186 C25.73,81.186 24.843,80.299 24.843,79.204 C24.843,78.11 25.73,77.222 26.825,77.222 C27.919,77.222 28.809,78.11 28.809,79.204" id="Fill-9" fill="#FFFFFF"></path>
            <path d="M36.785,69.216 C36.785,71.059 35.29,72.554 33.446,72.554 C31.6,72.554 30.106,71.059 30.106,69.216 C30.106,67.372 31.6,65.878 33.446,65.878 C35.29,65.878 36.785,67.372 36.785,69.216" id="Fill-10" fill="#FFFFFF"></path>
            <path d="M31.821,64.009 C31.821,65.589 30.54,66.871 28.958,66.871 C27.378,66.871 26.095,65.589 26.095,64.009 C26.095,62.427 27.378,61.144 28.958,61.144 C30.54,61.144 31.821,62.427 31.821,64.009" id="Fill-11" fill="#E2604C"></path>
            <path d="M40.561,60.429 C40.561,62.842 38.605,64.8 36.191,64.8 C33.778,64.8 31.821,62.842 31.821,60.429 C31.821,58.016 33.778,56.059 36.191,56.059 C38.605,56.059 40.561,58.016 40.561,60.429" id="Fill-12" fill="#FFFFFF"></path>
            <path d="M31.678,54.271 C31.678,55.953 30.316,57.315 28.637,57.315 C26.955,57.315 25.592,55.953 25.592,54.271 C25.592,52.59 26.955,51.229 28.637,51.229 C30.316,51.229 31.678,52.59 31.678,54.271" id="Fill-13" fill="#FFFFFF"></path>
            <path d="M27.615,59.288 C27.615,59.919 27.105,60.429 26.475,60.429 C25.846,60.429 25.334,59.919 25.334,59.288 C25.334,58.66 25.846,58.148 26.475,58.148 C27.105,58.148 27.615,58.66 27.615,59.288" id="Fill-14" fill="#FFFFFF"></path>
            <path d="M27.615,93.823 C27.615,94.588 26.995,95.209 26.228,95.209 C25.464,95.209 24.843,94.588 24.843,93.823 C24.843,93.055 25.464,92.437 26.228,92.437 C26.995,92.437 27.615,93.055 27.615,93.823" id="Fill-15" fill="#E2604C"></path>
            <path d="M31.56,105.264 C31.56,106.025 30.943,106.642 30.185,106.642 C29.422,106.642 28.809,106.025 28.809,105.264 C28.809,104.505 29.422,103.889 30.185,103.889 C30.943,103.889 31.56,104.505 31.56,105.264" id="Fill-16" fill="#FFFFFF"></path>
            <path d="M39.776,51.23 C39.776,52.978 38.358,54.395 36.611,54.395 C34.863,54.395 33.446,52.978 33.446,51.23 C33.446,49.483 34.863,48.065 36.611,48.065 C38.358,48.065 39.776,49.483 39.776,51.23" id="Fill-17" fill="#E2604C"></path>
            <path d="M35.348,43.804 C35.348,46.157 33.441,48.065 31.086,48.065 C28.734,48.065 26.825,46.157 26.825,43.804 C26.825,41.45 28.734,39.542 31.086,39.542 C33.441,39.542 35.348,41.45 35.348,43.804" id="Fill-18" fill="#FFFFFF"></path>
            <path d="M27.615,48.826 C27.615,49.246 27.275,49.585 26.855,49.585 C26.435,49.585 26.095,49.246 26.095,48.826 C26.095,48.406 26.435,48.065 26.855,48.065 C27.275,48.065 27.615,48.406 27.615,48.826" id="Fill-19" fill="#E2604C"></path>
            <path d="M39.776,45.705 C39.776,46.531 39.106,47.199 38.278,47.199 C37.455,47.199 36.785,46.531 36.785,45.705 C36.785,44.878 37.455,44.211 38.278,44.211 C39.106,44.211 39.776,44.878 39.776,45.705" id="Fill-20" fill="#FFFFFF"></path>
            <path d="M44.798,55.195 C44.798,56.366 43.85,57.315 42.681,57.315 C41.51,57.315 40.561,56.366 40.561,55.195 C40.561,54.025 41.51,53.077 42.681,53.077 C43.85,53.077 44.798,54.025 44.798,55.195" id="Fill-21" fill="#FFFFFF"></path>
            <path d="M48.522,62.921 C48.522,64.766 47.025,66.262 45.183,66.262 C43.339,66.262 41.844,64.766 41.844,62.921 C41.844,61.078 43.339,59.584 45.183,59.584 C47.025,59.584 48.522,61.078 48.522,62.921" id="Fill-22" fill="#FFFFFF"></path>
            <path d="M43.112,67.547 C43.112,68.469 42.366,69.216 41.444,69.216 C40.523,69.216 39.776,68.469 39.776,67.547 C39.776,66.624 40.523,65.878 41.444,65.878 C42.366,65.878 43.112,66.624 43.112,67.547" id="Fill-23" fill="#E2604C"></path>
            <path d="M51.608,70.952 C51.608,72.831 50.082,74.356 48.203,74.356 C46.324,74.356 44.798,72.831 44.798,70.952 C44.798,69.07 46.324,67.547 48.203,67.547 C50.082,67.547 51.608,69.07 51.608,70.952" id="Fill-24" fill="#FFFFFF"></path>
            <path d="M43.891,71.765 C43.891,72.44 43.344,72.987 42.668,72.987 C41.993,72.987 41.444,72.44 41.444,71.765 C41.444,71.09 41.993,70.541 42.668,70.541 C43.344,70.541 43.891,71.09 43.891,71.765" id="Fill-25" fill="#FFFFFF"></path>
            <path d="M54.228,79.885 C54.228,82.384 52.203,84.409 49.704,84.409 C47.208,84.409 45.183,82.384 45.183,79.885 C45.183,77.388 47.208,75.362 49.704,75.362 C52.203,75.362 54.228,77.388 54.228,79.885" id="Fill-26" fill="#FFFFFF"></path>
            <path d="M54.311,87.802 C54.311,89.073 53.277,90.103 52.007,90.103 C50.735,90.103 49.704,89.073 49.704,87.802 C49.704,86.53 50.735,85.499 52.007,85.499 C53.277,85.499 54.311,86.53 54.311,87.802" id="Fill-27" fill="#FFFFFF"></path>
            <path d="M61.086,88.239 C61.086,89.752 59.858,90.978 58.347,90.978 C56.832,90.978 55.607,89.752 55.607,88.239 C55.607,86.726 56.832,85.499 58.347,85.499 C59.858,85.499 61.086,86.726 61.086,88.239" id="Fill-28" fill="#FFFFFF"></path>
            <path d="M55.613,91.71 C55.613,92.109 55.286,92.437 54.885,92.437 C54.484,92.437 54.157,92.109 54.157,91.71 C54.157,91.304 54.484,90.978 54.885,90.978 C55.286,90.978 55.613,91.304 55.613,91.71" id="Fill-29" fill="#E2604C"></path>
            <path d="M66.634,96.08 C66.634,98.096 65.003,99.727 62.989,99.727 C60.975,99.727 59.343,98.096 59.343,96.08 C59.343,94.068 60.975,92.437 62.989,92.437 C65.003,92.437 66.634,94.068 66.634,96.08" id="Fill-30" fill="#FFFFFF"></path>
            <path d="M59.36,98.576 C59.36,99.212 58.845,99.727 58.208,99.727 C57.572,99.727 57.057,99.212 57.057,98.576 C57.057,97.939 57.572,97.425 58.208,97.425 C58.845,97.425 59.36,97.939 59.36,98.576" id="Fill-31" fill="#E2604C"></path>
            <path d="M69.534,104.972 C69.534,106.996 67.895,108.637 65.87,108.637 C63.847,108.637 62.205,106.996 62.205,104.972 C62.205,102.948 63.847,101.307 65.87,101.307 C67.895,101.307 69.534,102.948 69.534,104.972" id="Fill-32" fill="#FFFFFF"></path>
            <path d="M75.813,98.844 C75.813,100.888 74.156,102.547 72.111,102.547 C70.068,102.547 68.409,100.888 68.409,98.844 C68.409,96.801 70.068,95.142 72.111,95.142 C74.156,95.142 75.813,96.801 75.813,98.844" id="Fill-33" fill="#FFFFFF"></path>
            <path d="M77.652,107.079 C77.652,108.838 76.222,110.267 74.464,110.267 C72.703,110.267 71.272,108.838 71.272,107.079 C71.272,105.315 72.703,103.889 74.464,103.889 C76.222,103.889 77.652,105.315 77.652,107.079" id="Fill-34" fill="#FFFFFF"></path>
            <path d="M71.165,107.165 C71.165,107.613 70.8,107.979 70.35,107.979 C69.899,107.979 69.534,107.613 69.534,107.165 C69.534,106.714 69.899,106.349 70.35,106.349 C70.8,106.349 71.165,106.714 71.165,107.165" id="Fill-35" fill="#FFFFFF"></path>
            <path d="M78.393,102.598 C78.393,103.312 77.815,103.889 77.104,103.889 C76.392,103.889 75.813,103.312 75.813,102.598 C75.813,101.885 76.392,101.307 77.104,101.307 C77.815,101.307 78.393,101.885 78.393,102.598" id="Fill-36" fill="#E2604C"></path>
            <path d="M73.312,91.141 C73.312,92.985 71.818,94.479 69.975,94.479 C68.131,94.479 66.634,92.985 66.634,91.141 C66.634,89.295 68.131,87.802 69.975,87.802 C71.818,87.802 73.312,89.295 73.312,91.141" id="Fill-37" fill="#E2604C"></path>
            <path d="M77.962,92.73 C77.962,93.695 77.179,94.479 76.214,94.479 C75.247,94.479 74.464,93.695 74.464,92.73 C74.464,91.762 75.247,90.978 76.214,90.978 C77.179,90.978 77.962,91.762 77.962,92.73" id="Fill-38" fill="#FFFFFF"></path>
            <path d="M78.132,83.503 C78.132,85.878 76.207,87.802 73.833,87.802 C71.46,87.802 69.534,85.878 69.534,83.503 C69.534,81.129 71.46,79.204 73.833,79.204 C76.207,79.204 78.132,81.129 78.132,83.503" id="Fill-39" fill="#FFFFFF"></path>
            <path d="M68.765,83.196 C68.765,83.866 68.223,84.409 67.553,84.409 C66.883,84.409 66.342,83.866 66.342,83.196 C66.342,82.527 66.883,81.984 67.553,81.984 C68.223,81.984 68.765,82.527 68.765,83.196" id="Fill-40" fill="#E2604C"></path>
            <path d="M67.62,86.373 C67.62,86.856 67.227,87.248 66.745,87.248 C66.261,87.248 65.87,86.856 65.87,86.373 C65.87,85.891 66.261,85.499 66.745,85.499 C67.227,85.499 67.62,85.891 67.62,86.373" id="Fill-41" fill="#FFFFFF"></path>
            <path d="M73.199,76.221 C73.199,78.243 71.561,79.885 69.534,79.885 C67.512,79.885 65.87,78.243 65.87,76.221 C65.87,74.195 67.512,72.554 69.534,72.554 C71.561,72.554 73.199,74.195 73.199,76.221" id="Fill-42" fill="#FFFFFF"></path>
            <path d="M77.517,75.382 C77.517,76.399 76.694,77.222 75.677,77.222 C74.658,77.222 73.835,76.399 73.835,75.382 C73.835,74.363 74.658,73.539 75.677,73.539 C76.694,73.539 77.517,74.363 77.517,75.382" id="Fill-43" fill="#FFFFFF"></path>
            <path d="M77.028,69.216 C77.028,71.059 75.533,72.554 73.69,72.554 C71.844,72.554 70.35,71.059 70.35,69.216 C70.35,67.372 71.844,65.878 73.69,65.878 C75.533,65.878 77.028,67.372 77.028,69.216" id="Fill-44" fill="#FFFFFF"></path>
            <path d="M69.537,69.044 C69.537,69.871 68.867,70.541 68.04,70.541 C67.213,70.541 66.543,69.871 66.543,69.044 C66.543,68.217 67.213,67.547 68.04,67.547 C68.867,67.547 69.537,68.217 69.537,69.044" id="Fill-45" fill="#FFFFFF"></path>
            <path d="M73.395,61.472 C73.395,63.309 71.907,64.8 70.07,64.8 C68.232,64.8 66.745,63.309 66.745,61.472 C66.745,59.637 68.232,58.148 70.07,58.148 C71.907,58.148 73.395,59.637 73.395,61.472" id="Fill-46" fill="#FFFFFF"></path>
            <path d="M77.789,63.136 C77.789,64.054 77.044,64.8 76.126,64.8 C75.207,64.8 74.464,64.054 74.464,63.136 C74.464,62.217 75.207,61.472 76.126,61.472 C77.044,61.472 77.789,62.217 77.789,63.136" id="Fill-47" fill="#E2604C"></path>
            <path d="M79.839,53.45 C79.839,55.585 78.109,57.315 75.976,57.315 C73.842,57.315 72.111,55.585 72.111,53.45 C72.111,51.317 73.842,49.585 75.976,49.585 C78.109,49.585 79.839,51.317 79.839,53.45" id="Fill-48" fill="#FFFFFF"></path>
            <path d="M75.898,58.865 C75.898,59.262 75.576,59.584 75.181,59.584 C74.784,59.584 74.464,59.262 74.464,58.865 C74.464,58.47 74.784,58.148 75.181,58.148 C75.576,58.148 75.898,58.47 75.898,58.865" id="Fill-49" fill="#CBCCCB"></path>
            <path d="M70.601,54.569 C70.601,55.392 69.935,56.059 69.11,56.059 C68.287,56.059 67.62,55.392 67.62,54.569 C67.62,53.744 68.287,53.077 69.11,53.077 C69.935,53.077 70.601,53.744 70.601,54.569" id="Fill-50" fill="#FFFFFF"></path>
            <path d="M70.662,49.213 C70.662,50.325 69.76,51.229 68.649,51.229 C67.536,51.229 66.634,50.325 66.634,49.213 C66.634,48.101 67.536,47.199 68.649,47.199 C69.76,47.199 70.662,48.101 70.662,49.213" id="Fill-51" fill="#CBCCCB"></path>
            <path d="M76.279,46.711 C76.279,48.093 75.159,49.213 73.777,49.213 C72.396,49.213 71.272,48.093 71.272,46.711 C71.272,45.328 72.396,44.211 73.777,44.211 C75.159,44.211 76.279,45.328 76.279,46.711" id="Fill-52" fill="#FFFFFF"></path>
            <path d="M77.367,41.946 C77.367,42.922 76.573,43.71 75.6,43.71 C74.625,43.71 73.835,42.922 73.835,41.946 C73.835,40.971 74.625,40.179 75.6,40.179 C76.573,40.179 77.367,40.971 77.367,41.946" id="Fill-53" fill="#FFFFFF"></path>
            <path d="M72.27,42.941 C72.27,44.467 71.034,45.705 69.508,45.705 C67.982,45.705 66.745,44.467 66.745,42.941 C66.745,41.415 67.982,40.179 69.508,40.179 C71.034,40.179 72.27,41.415 72.27,42.941" id="Fill-54" fill="#FFFFFF"></path>
            <path d="M74.295,38.614 C74.295,39.479 73.594,40.179 72.728,40.179 C71.868,40.179 71.165,39.479 71.165,38.614 C71.165,37.751 71.868,37.049 72.728,37.049 C73.594,37.049 74.295,37.751 74.295,38.614" id="Fill-55" fill="#CBCCCB"></path>
            <path d="M77.635,35.379 C77.635,36.301 76.887,37.049 75.965,37.049 C75.041,37.049 74.295,36.301 74.295,35.379 C74.295,34.457 75.041,33.709 75.965,33.709 C76.887,33.709 77.635,34.457 77.635,35.379" id="Fill-56" fill="#FFFFFF"></path>
            <path d="M71.18,35.843 C71.18,37.373 69.941,38.614 68.409,38.614 C66.879,38.614 65.638,37.373 65.638,35.843 C65.638,34.311 66.879,33.072 68.409,33.072 C69.941,33.072 71.18,34.311 71.18,35.843" id="Fill-57" fill="#FFFFFF"></path>
            <path d="M74.822,29.812 C74.822,30.821 74.003,31.639 72.994,31.639 C71.983,31.639 71.165,30.821 71.165,29.812 C71.165,28.801 71.983,27.98 72.994,27.98 C74.003,27.98 74.822,28.801 74.822,29.812" id="Fill-58" fill="#CBCCCB"></path>
            <path d="M73.366,33.391 C73.366,33.566 73.222,33.709 73.048,33.709 C72.871,33.709 72.728,33.566 72.728,33.391 C72.728,33.215 72.871,33.072 73.048,33.072 C73.222,33.072 73.366,33.215 73.366,33.391" id="Fill-59" fill="#FFFFFF"></path>
            <path d="M70.557,27.703 C70.557,28.866 69.613,29.812 68.449,29.812 C67.284,29.812 66.342,28.866 66.342,27.703 C66.342,26.54 67.284,25.595 68.449,25.595 C69.613,25.595 70.557,26.54 70.557,27.703" id="Fill-60" fill="#FFFFFF"></path>
            <path d="M68.955,31.639 C68.955,32.147 68.544,32.555 68.04,32.555 C67.534,32.555 67.125,32.147 67.125,31.639 C67.125,31.135 67.534,30.725 68.04,30.725 C68.544,30.725 68.955,31.135 68.955,31.639" id="Fill-61" fill="#CBCCCB"></path>
            <path d="M79.57,29.812 C79.57,30.795 78.77,31.59 77.789,31.59 C76.806,31.59 76.008,30.795 76.008,29.812 C76.008,28.829 76.806,28.033 77.789,28.033 C78.77,28.033 79.57,28.829 79.57,29.812" id="Fill-62" fill="#FFFFFF"></path>
            <path d="M76.88,24.9 C76.88,26.448 75.626,27.703 74.078,27.703 C72.53,27.703 71.272,26.448 71.272,24.9 C71.272,23.35 72.53,22.096 74.078,22.096 C75.626,22.096 76.88,23.35 76.88,24.9" id="Fill-63" fill="#FFFFFF"></path>
            <path d="M69.91,22.096 C69.91,23.128 69.074,23.965 68.04,23.965 C67.005,23.965 66.171,23.128 66.171,22.096 C66.171,21.062 67.005,20.225 68.04,20.225 C69.074,20.225 69.91,21.062 69.91,22.096" id="Fill-64" fill="#CBCCCB"></path>
            <path d="M72.838,18.912 C72.838,19.704 72.197,20.346 71.406,20.346 C70.613,20.346 69.975,19.704 69.975,18.912 C69.975,18.122 70.613,17.481 71.406,17.481 C72.197,17.481 72.838,18.122 72.838,18.912" id="Fill-65" fill="#CBCCCB"></path>
            <path d="M79.971,15.335 C79.971,16.521 79.009,17.481 77.824,17.481 C76.638,17.481 75.677,16.521 75.677,15.335 C75.677,14.148 76.638,13.187 77.824,13.187 C79.009,13.187 79.971,14.148 79.971,15.335" id="Fill-66" fill="#CBCCCB"></path>
            <path d="M73.291,12.826 C73.291,13.543 72.71,14.125 71.995,14.125 C71.279,14.125 70.696,13.543 70.696,12.826 C70.696,12.109 71.279,11.529 71.995,11.529 C72.71,11.529 73.291,12.109 73.291,12.826" id="Fill-67" fill="#CBCCCB"></path>
            <path d="M74.726,6.48 C74.726,6.852 74.424,7.155 74.051,7.155 C73.68,7.155 73.38,6.852 73.38,6.48 C73.38,6.109 73.68,5.806 74.051,5.806 C74.424,5.806 74.726,6.109 74.726,6.48" id="Fill-68" fill="#CBCCCB"></path>
            <path d="M77.734,20.504 C77.734,21.383 77.024,22.096 76.147,22.096 C75.267,22.096 74.554,21.383 74.554,20.504 C74.554,19.626 75.267,18.912 76.147,18.912 C77.024,18.912 77.734,19.626 77.734,20.504" id="Fill-69" fill="#CBCCCB"></path>
            <path d="M77.789,10.588 C77.789,11.613 76.958,12.443 75.934,12.443 C74.909,12.443 74.078,11.613 74.078,10.588 C74.078,9.562 74.909,8.732 75.934,8.732 C76.958,8.732 77.789,9.562 77.789,10.588" id="Fill-70" fill="#CBCCCB"></path>
            <path d="M75.457,1.063 C75.457,1.604 75.019,2.044 74.475,2.044 C73.936,2.044 73.494,1.604 73.494,1.063 C73.494,0.52 73.936,0.082 74.475,0.082 C75.019,0.082 75.457,0.52 75.457,1.063" id="Fill-71" fill="#CBCCCB"></path>
            <path d="M78.447,23.357 C78.447,23.539 78.299,23.687 78.118,23.687 C77.938,23.687 77.789,23.539 77.789,23.357 C77.789,23.177 77.938,23.028 78.118,23.028 C78.299,23.028 78.447,23.177 78.447,23.357" id="Fill-72" fill="#FFFFFF"></path>
            <polyline id="Fill-73" fill="#515257" points="152.511 91.983 129.006 56.191 129.006 91.983 121.291 91.983 121.291 41.117 128.363 41.117 151.868 76.838 151.868 41.117 159.583 41.117 159.583 91.983 152.511 91.983"></polyline>
            <polygon id="Fill-74" fill="#515257" points="177.162 91.983 184.878 91.983 184.878 41.117 177.162 41.117"></polygon>
            <path d="M209.098,92.412 C203.882,92.412 200.239,90.983 196.738,87.482 L201.882,82.41 C203.668,84.196 205.383,85.482 209.098,85.482 C214.813,85.482 218.313,81.981 218.313,75.337 L218.313,41.117 L226.029,41.117 L226.029,75.909 C226.029,86.482 218.457,92.412 209.098,92.412" id="Fill-75" fill="#515257"></path>
            <polyline id="Fill-76" fill="#515257" points="242.893 91.983 242.893 41.117 275.399 41.117 275.399 48.047 250.609 48.047 250.609 62.907 271.756 62.907 271.756 69.765 250.609 69.765 250.609 85.054 275.399 85.054 275.399 91.983 242.893 91.983"></polyline>
            <polyline id="Fill-77" fill="#515257" points="290.263 91.983 290.263 41.117 297.978 41.117 297.978 85.054 322.482 85.054 322.482 91.983 290.263 91.983"></polyline>
            <path d="M122.1,110.056 C122.326,110.087 122.656,110.098 123.007,110.098 C124.935,110.098 125.965,109.025 125.965,107.149 C125.976,105.511 125.048,104.47 123.151,104.47 C122.687,104.47 122.337,104.51 122.1,104.562 L122.1,110.056 Z M121.203,103.913 C121.749,103.82 122.398,103.758 123.11,103.758 C124.398,103.758 125.316,104.067 125.924,104.624 C126.553,105.191 126.914,105.995 126.914,107.119 C126.914,108.252 126.553,109.18 125.914,109.819 C125.254,110.469 124.182,110.819 122.832,110.819 C122.182,110.819 121.656,110.788 121.203,110.737 L121.203,103.913 L121.203,103.913 Z" id="Fill-78" fill="#515257"></path>
            <path d="M132.578,107.871 L131.887,105.871 C131.732,105.418 131.629,105.005 131.526,104.603 L131.505,104.603 C131.402,105.005 131.299,105.438 131.155,105.861 L130.475,107.871 L132.578,107.871 Z M130.289,108.572 L129.568,110.757 L128.64,110.757 L131.011,103.81 L132.083,103.81 L134.454,110.757 L133.495,110.757 L132.753,108.572 L130.289,108.572 L130.289,108.572 Z" id="Fill-79" fill="#515257"></path>
            <polyline id="Fill-80" fill="#515257" points="137.242 104.573 135.128 104.573 135.128 103.81 140.272 103.81 140.272 104.573 138.148 104.573 138.148 110.757 137.242 110.757 137.242 104.573"></polyline>
            <path d="M144.924,107.871 L144.233,105.871 C144.079,105.418 143.976,105.005 143.873,104.603 L143.852,104.603 C143.749,105.005 143.646,105.438 143.501,105.861 L142.821,107.871 L144.924,107.871 Z M142.635,108.572 L141.914,110.757 L140.986,110.757 L143.357,103.81 L144.429,103.81 L146.8,110.757 L145.842,110.757 L145.099,108.572 L142.635,108.572 L142.635,108.572 Z" id="Fill-81" fill="#515257"></path>
            <path d="M148.815,110.221 C148.815,109.85 149.073,109.572 149.434,109.572 C149.794,109.572 150.042,109.84 150.042,110.221 C150.042,110.592 149.794,110.87 149.413,110.87 C149.063,110.87 148.815,110.592 148.815,110.221" id="Fill-82" fill="#515257"></path>
            <path d="M161.715,107.706 C161.663,106.737 161.601,105.562 161.601,104.706 L161.581,104.706 C161.333,105.511 161.055,106.387 160.704,107.346 L159.478,110.716 L158.798,110.716 L157.664,107.407 C157.334,106.417 157.066,105.531 156.87,104.706 L156.85,104.706 C156.829,105.572 156.777,106.726 156.715,107.778 L156.53,110.757 L155.674,110.757 L156.159,103.81 L157.303,103.81 L158.488,107.17 C158.777,108.025 159.003,108.788 159.189,109.51 L159.21,109.51 C159.396,108.809 159.643,108.046 159.952,107.17 L161.189,103.81 L162.333,103.81 L162.766,110.757 L161.879,110.757 L161.715,107.706" id="Fill-83" fill="#515257"></path>
            <path d="M168.699,107.871 L168.008,105.871 C167.854,105.418 167.751,105.005 167.648,104.603 L167.627,104.603 C167.524,105.005 167.421,105.438 167.277,105.861 L166.596,107.871 L168.699,107.871 Z M166.411,108.572 L165.689,110.757 L164.761,110.757 L167.133,103.81 L168.205,103.81 L170.575,110.757 L169.616,110.757 L168.875,108.572 L166.411,108.572 L166.411,108.572 Z" id="Fill-84" fill="#515257"></path>
            <path d="M173.735,107.242 C173.931,107.293 174.178,107.314 174.477,107.314 C175.559,107.314 176.219,106.779 176.219,105.84 C176.219,104.912 175.559,104.47 174.58,104.47 C174.188,104.47 173.889,104.5 173.735,104.541 L173.735,107.242 Z M172.838,103.892 C173.271,103.82 173.838,103.758 174.559,103.758 C175.446,103.758 176.095,103.964 176.507,104.335 C176.878,104.665 177.115,105.17 177.115,105.789 C177.115,106.417 176.93,106.912 176.58,107.273 C176.095,107.778 175.333,108.035 174.456,108.035 C174.188,108.035 173.941,108.025 173.735,107.974 L173.735,110.757 L172.838,110.757 L172.838,103.892 L172.838,103.892 Z" id="Fill-85" fill="#515257"></path>
            <path d="M180.459,107.242 C180.655,107.293 180.902,107.314 181.201,107.314 C182.283,107.314 182.943,106.779 182.943,105.84 C182.943,104.912 182.283,104.47 181.305,104.47 C180.913,104.47 180.614,104.5 180.459,104.541 L180.459,107.242 Z M179.563,103.892 C179.995,103.82 180.562,103.758 181.284,103.758 C182.17,103.758 182.82,103.964 183.231,104.335 C183.603,104.665 183.84,105.17 183.84,105.789 C183.84,106.417 183.654,106.912 183.304,107.273 C182.82,107.778 182.057,108.035 181.181,108.035 C180.913,108.035 180.665,108.025 180.459,107.974 L180.459,110.757 L179.563,110.757 L179.563,103.892 L179.563,103.892 Z" id="Fill-86" fill="#515257"></path>
            <polygon id="Fill-87" fill="#515257" points="186.277 110.757 187.184 110.757 187.184 103.81 186.277 103.81"></polygon>
            <path d="M189.99,110.757 L189.99,103.81 L190.98,103.81 L193.196,107.325 C193.701,108.139 194.113,108.871 194.433,109.582 L194.464,109.572 C194.381,108.644 194.36,107.799 194.36,106.716 L194.36,103.81 L195.206,103.81 L195.206,110.757 L194.299,110.757 L192.093,107.232 C191.608,106.459 191.145,105.665 190.805,104.912 L190.773,104.923 C190.825,105.799 190.835,106.634 190.835,107.788 L190.835,110.757 L189.99,110.757" id="Fill-88" fill="#515257"></path>
            <path d="M203.313,110.448 C202.911,110.602 202.106,110.829 201.169,110.829 C200.117,110.829 199.251,110.561 198.571,109.912 C197.974,109.335 197.603,108.407 197.603,107.325 C197.603,105.253 199.035,103.737 201.365,103.737 C202.169,103.737 202.808,103.913 203.107,104.057 L202.88,104.788 C202.509,104.614 202.045,104.49 201.344,104.49 C199.653,104.49 198.551,105.541 198.551,107.283 C198.551,109.046 199.602,110.087 201.231,110.087 C201.818,110.087 202.22,110.005 202.426,109.902 L202.426,107.829 L201.024,107.829 L201.024,107.108 L203.313,107.108 L203.313,110.448" id="Fill-89" fill="#515257"></path>
            <path d="M205.668,110.221 C205.668,109.85 205.926,109.572 206.287,109.572 C206.647,109.572 206.895,109.84 206.895,110.221 C206.895,110.592 206.647,110.87 206.266,110.87 C205.916,110.87 205.668,110.592 205.668,110.221" id="Fill-90" fill="#515257"></path>
            <path d="M324,110.649 C324,110.278 324.258,110 324.619,110 C324.979,110 325.227,110.268 325.227,110.649 C325.227,111.02 324.979,111.298 324.598,111.298 C324.248,111.298 324,111.02 324,110.649" id="Fill-90-Copy" fill="#515257"></path>
            <path d="M217.557,110.54 C217.238,110.705 216.567,110.87 215.722,110.87 C213.764,110.87 212.3,109.634 212.3,107.346 C212.3,105.16 213.774,103.696 215.929,103.696 C216.784,103.696 217.341,103.882 217.578,104.006 L217.351,104.737 C217.021,104.573 216.537,104.449 215.96,104.449 C214.331,104.449 213.249,105.49 213.249,107.314 C213.249,109.025 214.228,110.108 215.908,110.108 C216.465,110.108 217.021,109.994 217.382,109.819 L217.557,110.54" id="Fill-91" fill="#515257"></path>
            <path d="M220.252,107.314 C220.252,108.809 221.056,110.139 222.479,110.139 C223.901,110.139 224.705,108.829 224.705,107.253 C224.705,105.861 223.983,104.417 222.489,104.417 C220.994,104.417 220.252,105.799 220.252,107.314 Z M225.654,107.211 C225.654,109.592 224.2,110.87 222.427,110.87 C220.582,110.87 219.304,109.438 219.304,107.335 C219.304,105.129 220.665,103.686 222.52,103.686 C224.427,103.686 225.654,105.139 225.654,107.211 L225.654,107.211 Z" id="Fill-92" fill="#515257"></path>
            <path d="M233.916,107.706 C233.864,106.737 233.802,105.562 233.802,104.706 L233.782,104.706 C233.534,105.511 233.256,106.387 232.905,107.346 L231.679,110.716 L230.999,110.716 L229.865,107.407 C229.535,106.417 229.267,105.531 229.071,104.706 L229.05,104.706 C229.03,105.572 228.978,106.726 228.917,107.778 L228.731,110.757 L227.875,110.757 L228.36,103.81 L229.504,103.81 L230.689,107.17 C230.978,108.025 231.205,108.788 231.39,109.51 L231.411,109.51 C231.597,108.809 231.844,108.046 232.153,107.17 L233.39,103.81 L234.534,103.81 L234.967,110.757 L234.081,110.757 L233.916,107.706" id="Fill-93" fill="#515257"></path>
            <path d="M243.446,107.706 C243.395,106.737 243.333,105.562 243.333,104.706 L243.312,104.706 C243.065,105.511 242.787,106.387 242.436,107.346 L241.209,110.716 L240.529,110.716 L239.395,107.407 C239.065,106.417 238.797,105.531 238.602,104.706 L238.581,104.706 C238.56,105.572 238.509,106.726 238.447,107.778 L238.261,110.757 L237.406,110.757 L237.89,103.81 L239.034,103.81 L240.22,107.17 C240.509,108.025 240.735,108.788 240.92,109.51 L240.941,109.51 C241.127,108.809 241.375,108.046 241.683,107.17 L242.92,103.81 L244.064,103.81 L244.498,110.757 L243.611,110.757 L243.446,107.706" id="Fill-94" fill="#515257"></path>
            <path d="M248.019,103.81 L248.019,107.932 C248.019,109.479 248.709,110.139 249.637,110.139 C250.658,110.139 251.328,109.458 251.328,107.932 L251.328,103.81 L252.234,103.81 L252.234,107.871 C252.234,110.005 251.111,110.87 249.606,110.87 C248.184,110.87 247.111,110.066 247.111,107.902 L247.111,103.81 L248.019,103.81" id="Fill-95" fill="#515257"></path>
            <path d="M255.033,110.757 L255.033,103.81 L256.022,103.81 L258.239,107.325 C258.743,108.139 259.156,108.871 259.476,109.582 L259.506,109.572 C259.424,108.644 259.403,107.799 259.403,106.716 L259.403,103.81 L260.249,103.81 L260.249,110.757 L259.341,110.757 L257.135,107.232 C256.651,106.459 256.187,105.665 255.847,104.912 L255.816,104.923 C255.867,105.799 255.878,106.634 255.878,107.788 L255.878,110.757 L255.033,110.757" id="Fill-96" fill="#515257"></path>
            <polygon id="Fill-97" fill="#515257" points="263.047 110.757 263.954 110.757 263.954 103.81 263.047 103.81"></polygon>
            <polyline id="Fill-98" fill="#515257" points="268.08 104.573 265.967 104.573 265.967 103.81 271.11 103.81 271.11 104.573 268.987 104.573 268.987 110.757 268.08 110.757 268.08 104.573"></polyline>
            <path d="M274.959,110.757 L274.959,107.809 L272.752,103.81 L273.783,103.81 L274.763,105.727 C275.021,106.252 275.237,106.675 275.454,107.16 L275.474,107.16 C275.66,106.706 275.907,106.252 276.176,105.727 L277.175,103.81 L278.185,103.81 L275.866,107.799 L275.866,110.757 L274.959,110.757" id="Fill-99" fill="#515257"></path>
            <polygon id="Fill-100" fill="#515257" points="283.645 110.757 284.552 110.757 284.552 103.81 283.645 103.81"></polygon>
            <path d="M293.212,107.706 C293.16,106.737 293.099,105.562 293.099,104.706 L293.078,104.706 C292.83,105.511 292.552,106.387 292.202,107.346 L290.976,110.716 L290.295,110.716 L289.16,107.407 C288.831,106.417 288.563,105.531 288.367,104.706 L288.347,104.706 C288.326,105.572 288.274,106.726 288.212,107.778 L288.026,110.757 L287.171,110.757 L287.655,103.81 L288.801,103.81 L289.985,107.17 C290.274,108.025 290.501,108.788 290.687,109.51 L290.707,109.51 C290.893,108.809 291.14,108.046 291.449,107.17 L292.687,103.81 L293.83,103.81 L294.264,110.757 L293.377,110.757 L293.212,107.706" id="Fill-101" fill="#515257"></path>
            <path d="M297.785,107.242 C297.98,107.293 298.229,107.314 298.527,107.314 C299.608,107.314 300.269,106.779 300.269,105.84 C300.269,104.912 299.608,104.47 298.63,104.47 C298.238,104.47 297.938,104.5 297.785,104.541 L297.785,107.242 Z M296.888,103.892 C297.32,103.82 297.888,103.758 298.609,103.758 C299.496,103.758 300.146,103.964 300.557,104.335 C300.928,104.665 301.166,105.17 301.166,105.789 C301.166,106.417 300.98,106.912 300.63,107.273 C300.146,107.778 299.383,108.035 298.506,108.035 C298.238,108.035 297.99,108.025 297.785,107.974 L297.785,110.757 L296.888,110.757 L296.888,103.892 L296.888,103.892 Z" id="Fill-102" fill="#515257"></path>
            <path d="M306.16,107.871 L305.469,105.871 C305.314,105.418 305.211,105.005 305.107,104.603 L305.087,104.603 C304.984,105.005 304.881,105.438 304.736,105.861 L304.057,107.871 L306.16,107.871 Z M303.871,108.572 L303.15,110.757 L302.222,110.757 L304.593,103.81 L305.664,103.81 L308.035,110.757 L307.076,110.757 L306.334,108.572 L303.871,108.572 L303.871,108.572 Z" id="Fill-103" fill="#515257"></path>
            <path d="M314.987,110.54 C314.667,110.705 313.997,110.87 313.151,110.87 C311.193,110.87 309.729,109.634 309.729,107.346 C309.729,105.16 311.204,103.696 313.357,103.696 C314.214,103.696 314.77,103.882 315.008,104.006 L314.781,104.737 C314.45,104.573 313.966,104.449 313.39,104.449 C311.76,104.449 310.678,105.49 310.678,107.314 C310.678,109.025 311.657,110.108 313.337,110.108 C313.894,110.108 314.45,109.994 314.812,109.819 L314.987,110.54" id="Fill-104" fill="#515257"></path>
            <polyline id="Fill-105" fill="#515257" points="318.97 104.573 316.857 104.573 316.857 103.81 322 103.81 322 104.573 319.877 104.573 319.877 110.757 318.97 110.757 318.97 104.573"></polyline>
        </g>
    </g>
</svg>