<svg id="Layer_1" data-name="Layer 1" xmlns="http://www.w3.org/2000/svg" viewBox="0 0 324.88 125.21"><defs><style>.cls-1{fill:gray;}.cls-2{fill:#fff;}.cls-3{fill:#f2654f;}.cls-4{fill:#d1d3d4;}</style></defs><title>NijelLogo_Gray_Tagline-01</title><circle class="cls-1" cx="52.31" cy="72.9" r="52.31"/><circle class="cls-2" cx="55.49" cy="95.07" r="1.45"/><circle class="cls-2" cx="28.43" cy="98.76" r="3.7"/><circle class="cls-2" cx="34.31" cy="103.4" r="2.17"/><circle class="cls-2" cx="34.3" cy="95.17" r="2.17"/><circle class="cls-2" cx="29.99" cy="87.17" r="5.26"/><circle class="cls-2" cx="32.4" cy="77.14" r="3.97"/><circle class="cls-2" cx="26.74" cy="70.46" r="2.01"/><circle class="cls-2" cx="26.71" cy="79.12" r="1.98"/><circle class="cls-2" cx="33.33" cy="69.13" r="3.34"/><circle class="cls-3" cx="28.84" cy="63.93" r="2.86"/><circle class="cls-2" cx="36.08" cy="60.35" r="4.37"/><circle class="cls-2" cx="28.52" cy="54.19" r="3.04"/><circle class="cls-2" cx="26.36" cy="59.21" r="1.14"/><circle class="cls-3" cx="26.12" cy="93.74" r="1.39"/><circle class="cls-2" cx="30.07" cy="105.18" r="1.38"/><circle class="cls-3" cx="36.5" cy="51.15" r="3.17"/><circle class="cls-2" cx="30.97" cy="43.72" r="4.26"/><circle class="cls-3" cx="26.74" cy="48.74" r="0.76"/><circle class="cls-2" cx="38.17" cy="45.62" r="1.49"/><circle class="cls-2" cx="42.57" cy="55.11" r="2.12"/><circle class="cls-2" cx="45.07" cy="62.84" r="3.34"/><circle class="cls-3" cx="41.33" cy="67.46" r="1.67"/><circle class="cls-2" cx="48.09" cy="70.87" r="3.41"/><circle class="cls-2" cx="42.55" cy="71.68" r="1.22"/><circle class="cls-2" cx="49.59" cy="79.8" r="4.52"/><circle class="cls-2" cx="51.89" cy="87.72" r="2.3"/><circle class="cls-2" cx="58.23" cy="88.16" r="2.74"/><circle class="cls-3" cx="54.77" cy="91.63" r="0.73"/><circle class="cls-2" cx="62.88" cy="96" r="3.65"/><circle class="cls-3" cx="58.09" cy="98.49" r="1.15"/><circle class="cls-2" cx="65.76" cy="104.89" r="3.66"/><circle class="cls-2" cx="72" cy="98.76" r="3.7"/><circle class="cls-2" cx="74.35" cy="107" r="3.19"/><circle class="cls-2" cx="70.24" cy="107.08" r="0.82"/><circle class="cls-3" cx="76.99" cy="102.52" r="1.29"/><circle class="cls-3" cx="69.86" cy="91.06" r="3.34"/><circle class="cls-2" cx="76.1" cy="92.65" r="1.75"/><circle class="cls-2" cx="73.72" cy="83.42" r="4.3"/><circle class="cls-3" cx="67.44" cy="83.11" r="1.21"/><circle class="cls-2" cx="66.63" cy="86.29" r="0.87"/><circle class="cls-2" cx="69.42" cy="76.14" r="3.66"/><circle class="cls-2" cx="75.56" cy="75.3" r="1.84"/><circle class="cls-2" cx="73.58" cy="69.13" r="3.34"/><circle class="cls-2" cx="67.93" cy="68.96" r="1.5"/><circle class="cls-2" cx="69.96" cy="61.39" r="3.33"/><circle class="cls-3" cx="76.01" cy="63.05" r="1.66"/><circle class="cls-2" cx="75.86" cy="53.37" r="3.86"/><circle class="cls-4" cx="75.07" cy="58.78" r="0.72"/><circle class="cls-2" cx="69" cy="54.49" r="1.49"/><circle class="cls-4" cx="68.54" cy="49.13" r="2.01"/><circle class="cls-2" cx="73.66" cy="46.63" r="2.5"/><circle class="cls-2" cx="75.49" cy="41.86" r="1.77"/><circle class="cls-2" cx="69.39" cy="42.86" r="2.76"/><circle class="cls-4" cx="72.62" cy="38.53" r="1.57"/><circle class="cls-2" cx="75.85" cy="35.3" r="1.67"/><circle class="cls-2" cx="68.3" cy="35.76" r="2.77"/><circle class="cls-4" cx="72.88" cy="29.73" r="1.83"/><circle class="cls-2" cx="72.93" cy="33.31" r="0.32"/><circle class="cls-2" cx="68.34" cy="27.62" r="2.11"/><circle class="cls-4" cx="67.93" cy="31.56" r="0.92"/><circle class="cls-2" cx="77.68" cy="29.73" r="1.78"/><circle class="cls-2" cx="73.96" cy="24.82" r="2.8"/><circle class="cls-4" cx="67.93" cy="22.01" r="1.87"/><circle class="cls-4" cx="71.29" cy="18.83" r="1.43"/><circle class="cls-4" cx="77.71" cy="15.25" r="2.15"/><circle class="cls-4" cx="71.88" cy="12.74" r="1.3"/><circle class="cls-4" cx="73.94" cy="6.4" r="0.67"/><circle class="cls-4" cx="76.03" cy="20.42" r="1.59"/><circle class="cls-4" cx="75.82" cy="10.51" r="1.86"/><circle class="cls-4" cx="74.36" cy="0.98" r="0.98"/><circle class="cls-2" cx="78" cy="23.28" r="0.33"/><path class="cls-2" d="M178.51,103.3,155,67.51V103.3h-7.72V52.44h7.07l23.5,35.72V52.44h7.72V103.3Z" transform="translate(-26.11 -11.4)"/><path class="cls-2" d="M203.16,103.3V52.44h7.72V103.3Z" transform="translate(-26.11 -11.4)"/><path class="cls-2" d="M235.1,103.73c-5.22,0-8.86-1.43-12.36-4.93l5.14-5.07a8.91,8.91,0,0,0,7.22,3.07c5.72,0,9.22-3.5,9.22-10.14V52.44H252V87.23C252,97.8,244.46,103.73,235.1,103.73Z" transform="translate(-26.11 -11.4)"/><path class="cls-2" d="M268.89,103.3V52.44H301.4v6.93H276.61V74.23h21.15v6.86H276.61V96.37H301.4v6.93Z" transform="translate(-26.11 -11.4)"/><path class="cls-2" d="M316.26,103.3V52.44H324V96.37h24.5v6.93Z" transform="translate(-26.11 -11.4)"/><path class="cls-2" d="M147.2,115.23a11.49,11.49,0,0,1,1.91-.16,4,4,0,0,1,2.81.87,3.17,3.17,0,0,1,1,2.49,3.72,3.72,0,0,1-1,2.7,4.33,4.33,0,0,1-3.08,1,14.4,14.4,0,0,1-1.63-.08Zm.9,6.14a7.38,7.38,0,0,0,.91,0,2.67,2.67,0,0,0,3-2.95,2.48,2.48,0,0,0-2.81-2.68,5,5,0,0,0-1.05.09Z" transform="translate(-26.11 -11.4)"/><path class="cls-2" d="M156.29,119.89l-.72,2.19h-.93l2.37-6.95h1.07l2.37,6.95h-1l-.74-2.19Zm2.29-.7-.69-2c-.15-.45-.26-.87-.36-1.27h0c-.1.4-.21.84-.35,1.26l-.68,2Z" transform="translate(-26.11 -11.4)"/><path class="cls-2" d="M163.24,115.89h-2.11v-.76h5.14v.76h-2.12v6.18h-.91Z" transform="translate(-26.11 -11.4)"/><path class="cls-2" d="M168.64,119.89l-.72,2.19H167l2.37-6.95h1.07l2.37,6.95h-1l-.74-2.19Zm2.29-.7-.69-2c-.15-.45-.26-.87-.36-1.27h0c-.1.4-.21.84-.35,1.26l-.68,2Z" transform="translate(-26.11 -11.4)"/><path class="cls-2" d="M174.81,121.54a.62.62,0,0,1,.62-.65.6.6,0,0,1,.61.65.61.61,0,1,1-1.23,0Z" transform="translate(-26.11 -11.4)"/><path class="cls-2" d="M187.71,119c-.05-1-.11-2.14-.11-3h0c-.25.8-.53,1.68-.88,2.64L185.48,122h-.68l-1.13-3.31c-.33-1-.6-1.88-.79-2.7h0c0,.87-.07,2-.13,3.07l-.19,3h-.86l.48-6.95h1.14l1.19,3.36c.29.86.52,1.62.7,2.34h0c.19-.7.43-1.46.74-2.34l1.24-3.36h1.14l.43,6.95h-.89Z" transform="translate(-26.11 -11.4)"/><path class="cls-2" d="M192.41,119.89l-.72,2.19h-.93l2.37-6.95h1.07l2.37,6.95h-1l-.74-2.19Zm2.29-.7-.69-2c-.15-.45-.26-.87-.36-1.27h0c-.1.4-.21.84-.35,1.26l-.68,2Z" transform="translate(-26.11 -11.4)"/><path class="cls-2" d="M198.84,115.21a10.43,10.43,0,0,1,1.72-.13,2.85,2.85,0,0,1,1.95.58,1.9,1.9,0,0,1,.61,1.45,2,2,0,0,1-.54,1.48,2.89,2.89,0,0,1-2.12.76,3.1,3.1,0,0,1-.72-.06v2.78h-.9Zm.9,3.35a3,3,0,0,0,.74.07c1.08,0,1.74-.54,1.74-1.47s-.66-1.37-1.64-1.37a3.75,3.75,0,0,0-.85.07Z" transform="translate(-26.11 -11.4)"/><path class="cls-2" d="M205.56,115.21a10.42,10.42,0,0,1,1.72-.13,2.85,2.85,0,0,1,1.95.58,1.9,1.9,0,0,1,.61,1.45,2,2,0,0,1-.54,1.48,2.89,2.89,0,0,1-2.12.76,3.09,3.09,0,0,1-.72-.06v2.78h-.9Zm.9,3.35a3,3,0,0,0,.74.07c1.08,0,1.74-.54,1.74-1.47s-.66-1.37-1.64-1.37a3.75,3.75,0,0,0-.85.07Z" transform="translate(-26.11 -11.4)"/><path class="cls-2" d="M213.18,115.13v6.95h-.91v-6.95Z" transform="translate(-26.11 -11.4)"/><path class="cls-2" d="M216,122.08v-6.95h1l2.22,3.51a19.47,19.47,0,0,1,1.24,2.26h0c-.08-.93-.1-1.77-.1-2.86v-2.91h.85v6.95h-.91l-2.21-3.53a20.15,20.15,0,0,1-1.29-2.32h0c.05.88.06,1.71.06,2.87v3Z" transform="translate(-26.11 -11.4)"/><path class="cls-2" d="M229.31,121.77a6.28,6.28,0,0,1-2.14.38,3.26,3.26,0,0,1-3.57-3.5,3.48,3.48,0,0,1,3.76-3.59,4.36,4.36,0,0,1,1.74.32l-.23.73a3.46,3.46,0,0,0-1.54-.3,2.6,2.6,0,0,0-2.79,2.79,2.54,2.54,0,0,0,2.68,2.8,2.93,2.93,0,0,0,1.2-.19v-2.07H227v-.72h2.29Z" transform="translate(-26.11 -11.4)"/><path class="cls-2" d="M231.67,121.54a.62.62,0,0,1,.62-.65.6.6,0,0,1,.61.65.61.61,0,1,1-1.23,0Z" transform="translate(-26.11 -11.4)"/><path class="cls-2" d="M243.56,121.86a4.41,4.41,0,0,1-1.83.33,3.24,3.24,0,0,1-3.42-3.52,3.45,3.45,0,0,1,3.63-3.65,3.76,3.76,0,0,1,1.65.31l-.23.73a3.19,3.19,0,0,0-1.39-.29,2.58,2.58,0,0,0-2.71,2.87,2.52,2.52,0,0,0,2.66,2.79,3.61,3.61,0,0,0,1.47-.29Z" transform="translate(-26.11 -11.4)"/><path class="cls-2" d="M251.65,118.53c0,2.38-1.45,3.66-3.23,3.66s-3.12-1.43-3.12-3.54,1.36-3.65,3.22-3.65S251.65,116.46,251.65,118.53Zm-5.4.1c0,1.49.8,2.82,2.23,2.82s2.23-1.31,2.23-2.89c0-1.39-.72-2.84-2.22-2.84S246.25,117.12,246.25,118.63Z" transform="translate(-26.11 -11.4)"/><path class="cls-2" d="M259.92,119c-.05-1-.11-2.14-.11-3h0c-.25.8-.53,1.68-.88,2.64L257.68,122H257l-1.13-3.31c-.33-1-.6-1.88-.79-2.7h0c0,.87-.07,2-.13,3.07l-.19,3h-.86l.48-6.95h1.14l1.19,3.36c.29.86.52,1.62.7,2.34h0c.19-.7.43-1.46.74-2.34l1.24-3.36h1.14l.43,6.95h-.89Z" transform="translate(-26.11 -11.4)"/><path class="cls-2" d="M269.45,119c-.05-1-.11-2.14-.11-3h0c-.25.8-.53,1.68-.88,2.64L267.21,122h-.68l-1.13-3.31c-.33-1-.6-1.88-.79-2.7h0c0,.87-.07,2-.13,3.07l-.19,3h-.86l.48-6.95H265l1.19,3.36c.29.86.52,1.62.7,2.34h0c.19-.7.43-1.46.74-2.34l1.24-3.36h1.14l.43,6.95h-.89Z" transform="translate(-26.11 -11.4)"/><path class="cls-2" d="M274,115.13v4.12c0,1.55.69,2.21,1.62,2.21s1.69-.68,1.69-2.21v-4.12h.91v4.06c0,2.13-1.12,3-2.63,3s-2.49-.8-2.49-3v-4.09Z" transform="translate(-26.11 -11.4)"/><path class="cls-2" d="M281,122.08v-6.95h1l2.22,3.51a19.62,19.62,0,0,1,1.24,2.26h0c-.08-.93-.1-1.77-.1-2.86v-2.91h.85v6.95h-.91l-2.21-3.53a20.16,20.16,0,0,1-1.29-2.32h0c.05.88.06,1.71.06,2.87v3Z" transform="translate(-26.11 -11.4)"/><path class="cls-2" d="M290,115.13v6.95H289v-6.95Z" transform="translate(-26.11 -11.4)"/><path class="cls-2" d="M294.08,115.89H292v-.76h5.14v.76H295v6.18h-.91Z" transform="translate(-26.11 -11.4)"/><path class="cls-2" d="M301,122.08v-2.95l-2.21-4h1l1,1.92c.26.53.47.95.69,1.43h0c.19-.45.43-.91.7-1.43l1-1.92h1l-2.32,4v3Z" transform="translate(-26.11 -11.4)"/><path class="cls-2" d="M310.55,115.13v6.95h-.91v-6.95Z" transform="translate(-26.11 -11.4)"/><path class="cls-2" d="M319.21,119c-.05-1-.11-2.14-.11-3h0c-.25.8-.53,1.68-.88,2.64L317,122h-.68l-1.13-3.31c-.33-1-.6-1.88-.79-2.7h0c0,.87-.07,2-.13,3.07l-.19,3h-.86l.48-6.95h1.15l1.18,3.36c.29.86.52,1.62.7,2.34h0c.19-.7.43-1.46.74-2.34l1.24-3.36h1.14l.43,6.95h-.89Z" transform="translate(-26.11 -11.4)"/><path class="cls-2" d="M322.89,115.21a10.43,10.43,0,0,1,1.72-.13,2.85,2.85,0,0,1,1.95.58,1.9,1.9,0,0,1,.61,1.45,2,2,0,0,1-.54,1.48,2.89,2.89,0,0,1-2.12.76,3.09,3.09,0,0,1-.72-.06v2.78h-.9Zm.9,3.35a3,3,0,0,0,.74.07c1.08,0,1.74-.54,1.74-1.47s-.66-1.37-1.64-1.37a3.74,3.74,0,0,0-.84.07Z" transform="translate(-26.11 -11.4)"/><path class="cls-2" d="M329.87,119.89l-.72,2.19h-.93l2.37-6.95h1.07l2.37,6.95h-1l-.74-2.19Zm2.29-.7-.69-2c-.15-.45-.26-.87-.36-1.27h0c-.1.4-.21.84-.35,1.26l-.68,2Z" transform="translate(-26.11 -11.4)"/><path class="cls-2" d="M341,121.86a4.42,4.42,0,0,1-1.84.33,3.24,3.24,0,0,1-3.42-3.52,3.45,3.45,0,0,1,3.63-3.65,3.76,3.76,0,0,1,1.65.31l-.23.73a3.2,3.2,0,0,0-1.39-.29,2.58,2.58,0,0,0-2.71,2.87,2.52,2.52,0,0,0,2.66,2.79,3.61,3.61,0,0,0,1.47-.29Z" transform="translate(-26.11 -11.4)"/><path class="cls-2" d="M345,115.89h-2.11v-.76H348v.76h-2.12v6.18H345Z" transform="translate(-26.11 -11.4)"/><text x="-26.11" y="-11.4"></text><path class="cls-2" d="M349.77,121.54a.62.62,0,0,1,.62-.65.6.6,0,0,1,.61.65.61.61,0,1,1-1.23,0Z" transform="translate(-26.11 -11.4)"/></svg>