<?xml version="1.0" encoding="UTF-8" standalone="no"?>
<svg width="33px" height="33px" viewBox="0 0 33 33" version="1.1" xmlns="http://www.w3.org/2000/svg" xmlns:xlink="http://www.w3.org/1999/xlink">
    <!-- Generator: Sketch 44.1 (41455) - http://www.bohemiancoding.com/sketch -->
    <title>twitter</title>
    <desc>Created with Sketch.</desc>
    <defs></defs>
    <g id="Symbols" stroke="none" stroke-width="1" fill="none" fill-rule="evenodd">
        <g id="footer" transform="translate(-703.000000, -148.000000)">
            <g id="Group-4" transform="translate(639.000000, 148.000000)">
                <g id="twitter" transform="translate(64.000000, 0.000000)">
                    <rect id="Rectangle" x="0" y="0" width="33.0083841" height="33"></rect>
                    <ellipse id="Oval" stroke="#F26648" stroke-width="2" cx="16.5041921" cy="16.5" rx="15.5041921" ry="15.5"></ellipse>
                    <path d="M22.9004284,12.6342987 C23.5680571,12.213094 24.0803372,11.5452116 24.3207575,10.7496028 C23.6956648,11.1405821 23.0049188,11.4233353 22.2679382,11.576412 C21.6798332,10.9134046 20.8392869,10.5 19.9090453,10.5 C18.124387,10.5 16.6781665,12.025892 16.6781665,13.9076629 C16.6781665,14.1748158 16.7049826,14.4351437 16.7604642,14.6837715 C14.0751546,14.5414199 11.6940691,13.1861548 10.098973,11.1230319 C9.82064025,11.6280875 9.66159298,12.213094 9.66159298,12.837101 C9.66159298,14.0188141 10.2321288,15.0620757 11.0994912,15.6743825 C10.5696419,15.6568323 10.0712322,15.5018056 9.63477687,15.2483028 L9.63477687,15.2902282 C9.63477687,16.9418966 10.7481077,18.3195869 12.2285419,18.6315904 C11.956682,18.7115412 11.6718764,18.7515167 11.3759746,18.7515167 C11.1679185,18.7515167 10.964486,18.7310415 10.768451,18.691066 C11.1790149,20.044381 12.372794,21.031092 13.787575,21.0574173 C12.6807169,21.9719775 11.287204,22.5160335 9.77348088,22.5160335 C9.51271734,22.5160335 9.25472788,22.5014083 9.00228659,22.469233 C10.4327873,23.4354687 12.1314491,24 13.9567938,24 C19.9025724,24 23.1519451,18.8070923 23.1519451,14.3035173 C23.1519451,14.1553156 23.1500957,14.008089 23.1436228,13.8628124 C23.7751884,13.382132 24.3244563,12.7815254 24.7562881,12.0980428 C24.1765053,12.3690958 23.553262,12.5523978 22.9004284,12.6342987 Z" id="Shape" fill="#F26648"></path>
                </g>
            </g>
        </g>
    </g>
</svg>