<?xml version="1.0" encoding="UTF-8"?>
<svg width="153px" height="60px" viewBox="0 0 153 60" version="1.1" xmlns="http://www.w3.org/2000/svg" xmlns:xlink="http://www.w3.org/1999/xlink">
    <!-- Generator: Sketch 46.2 (44496) - http://www.bohemiancoding.com/sketch -->
    <title>CARTO-logo-positive</title>
    <desc>Created with Sketch.</desc>
    <defs></defs>
    <g id="Page-1" stroke="none" stroke-width="1" fill="none" fill-rule="evenodd">
        <g id="CARTO-logo-positive" fill="#FFFFFF">
            <circle id="Oval" opacity="0.1" cx="123" cy="30" r="30"></circle>
            <path d="M9.842,39.9693333 C14.041475,39.9693333 16.46806,38.138 18.26755,35.6506667 L14.28686,32.808 C13.14173,34.2013333 11.969335,35.1313333 9.97899,35.1313333 C7.30702,35.1313333 5.425735,32.89 5.425735,30.02 L5.425735,29.9653333 C5.425735,27.1773333 7.306355,24.8813333 9.978325,24.8813333 C11.80508,24.8813333 13.05927,25.7833333 14.14987,27.1226667 L18.129895,24.034 C16.439465,21.7113333 13.931085,20.0713333 10.03219,20.0713333 C4.25334,20.0706667 0,24.444 0,30.02 L0,30.0746667 C0,35.788 4.389,39.9693333 9.842,39.9693333 Z M27.27298,39.5866667 L32.807775,39.5866667 L34.171025,36.1426667 L41.559175,36.1426667 L42.922425,39.5866667 L48.594875,39.5866667 L40.468575,20.3166667 L35.37135,20.3166667 L27.27165,39.5866667 L27.27298,39.5866667 Z M35.72513,32.0153333 L37.87973,26.6033333 L40.005735,32.0153333 L35.7238,32.0153333 L35.72513,32.0153333 Z M58.89373,39.5866667 L64.18314,39.5866667 L64.18314,33.792 L66.52793,33.792 L70.37163,39.5866667 L76.45239,39.5866667 L71.899135,32.9173333 C74.270525,31.906 75.82463,29.9653333 75.82463,27.0133333 L75.82463,26.9586667 C75.82463,25.072 75.25273,23.624 74.1342,22.5033333 C72.85341,21.2186667 70.8358,20.4533333 67.918445,20.4533333 L58.894395,20.4533333 L58.894395,39.5866667 L58.89373,39.5866667 Z M64.18314,29.6373333 L64.18314,25.0173333 L67.67306,25.0173333 C69.41802,25.0173333 70.535885,25.784 70.535885,27.314 L70.535885,27.3693333 C70.535885,28.7626667 69.471885,29.638 67.69966,29.638 L64.18181,29.638 L64.18314,29.6373333 Z M91.60508,39.5866667 L91.60508,25.1 L85.90603,25.1 L85.90603,20.4533333 L102.62014,20.4533333 L102.62014,25.1 L96.89449,25.1 L96.89449,39.5866667 L91.60508,39.5866667 L91.60508,39.5866667 Z M123.025,40 C117.51614,40 113.05,35.5226667 113.05,30 C113.05,24.4773333 117.51614,20 123.025,20 C128.53386,20 133,24.4773333 133,30 C133,35.5226667 128.53386,40 123.025,40 Z" id="Shape"></path>
        </g>
    </g>
</svg>