<?xml version="1.0" encoding="UTF-8"?>
<svg width="94px" height="26px" viewBox="0 0 94 26" version="1.1" xmlns="http://www.w3.org/2000/svg" xmlns:xlink="http://www.w3.org/1999/xlink">
    <!-- Generator: Sketch 46.2 (44496) - http://www.bohemiancoding.com/sketch -->
    <title>logo_noshadow</title>
    <desc>Created with Sketch.</desc>
    <defs></defs>
    <g id="Page-1" stroke="none" stroke-width="1" fill="none" fill-rule="evenodd">
        <g id="logo_noshadow" fill-rule="nonzero" fill="#FFFFFF">
            <g id="Group" transform="translate(53.000000, 1.000000)">
                <path d="M28.5,11.6 C28.5,8.1 30.7,5.9 34.3,5.9 C37.9,5.9 40.1,8 40.1,11.5 C40.1,15 37.9,17.2 34.3,17.2 C30.5,17.2 28.5,15.1 28.5,11.6 Z M36.2,11.6 C36.2,8.4 35.7,7.1 34.1,7.1 C32.5,7.1 32.2,8.4 32.2,11.6 C32.2,14.8 32.7,16.2 34.3,16.2 C35.9,16.1 36.2,14.8 36.2,11.6 Z" id="Shape"></path>
                <path d="M18.7,15.2 L18.7,13.7 L18.7,9.5 C18.7,7.3 17.9,6 15.8,6 C14.3,6 12.9,6.9 11.8,7.9 L11.8,6.2 L7.1,6.5 L7.1,7.5 C8,7.6 8.2,8 8.2,8.6 L8.2,15.3 C8.2,15.9 7.9,16.1 7.1,16.1 L7.1,17.1 L13,17.1 L13,16.1 C12.2,16.1 11.9,15.8 11.9,15.3 L11.9,8.8 C12.5,8.5 13.1,8.2 13.8,8.2 C14.8,8.2 15.2,8.9 15.2,10 L15.2,15.1 C15.2,15.7 14.9,15.9 14.1,15.9 L14.1,16.9 L20,16.9 L20,15.9 C19.1,16 18.7,15.8 18.7,15.2 Z" id="Shape"></path>
                <path d="M5.1,15.2 L5.1,8.8 L5.1,8 L5.1,6.2 L0.4,6.5 L0.4,7.5 C1.3,7.6 1.5,8 1.5,8.6 L1.5,15.3 C1.5,15.9 1.2,16.1 0.4,16.1 L0.4,17.1 L6.3,17.1 L6.3,16.1 C5.4,16 5.1,15.8 5.1,15.2 Z" id="Shape"></path>
                <path d="M27.2,0.6 C25.4,0.6 24.1,1 23.3,1.9 C22.4,2.8 22,4.1 22,5.8 L22,6.4 L20,6.8 L20,7.9 L22,7.9 L22,15.3 C22,15.9 21.7,16.1 20.9,16.1 L20.9,17.1 L26.8,17.1 L26.8,16.1 C26,16.1 25.7,15.8 25.7,15.3 L25.7,7.8 L28.6,7.8 L28.6,6.4 L25.7,6.4 L25.7,4.8 C25.7,3.3 25.9,2.4 26.3,2 C26.6,1.7 26.8,1.7 27.1,1.7 C27.3,1.7 27.5,1.7 27.7,1.8 C27.6,2.1 27.5,2.7 27.5,3 C27.5,4.3 28.2,4.9 29.3,4.9 C30.3,4.8 31,4 31,3 C31,1.7 29.7,0.6 27.2,0.6 Z" id="Shape"></path>
            </g>
            <polygon id="Shape" points="47.3 3.6 47.3 21.6 3.6 21.6 3.6 3.6 10.8 3.6 10.8 0 0 0 0 25.1 50.9 25.1 50.9 0 18 0 18 3.6"></polygon>
            <g id="Group" transform="translate(6.000000, 0.000000)">
                <g transform="translate(14.000000, 7.000000)" id="Shape">
                    <path d="M11.6,9.2 L11.6,7.7 L11.6,3.5 C11.6,1.3 10.8,0 8.7,0 C7.2,0 5.8,0.9 4.7,1.9 L4.7,0.2 L3.55271368e-15,0.5 L3.55271368e-15,1.5 C0.9,1.6 1.1,2 1.1,2.6 L1.1,9.3 C1.1,9.9 0.8,10.1 3.55271368e-15,10.1 L3.55271368e-15,11.1 L5.9,11.1 L5.9,10.1 C5.1,10.1 4.8,9.8 4.8,9.3 L4.8,2.8 C5.4,2.5 6,2.2 6.7,2.2 C7.7,2.2 8.1,2.9 8.1,4 L8.1,9.1 C8.1,9.7 7.8,9.9 7,9.9 L7,10.9 L12.9,10.9 L12.9,9.9 C12,10 11.6,9.8 11.6,9.2 Z"></path>
                    <path d="M23.8,9.2 L23.8,8.4 L23.8,4.2 C23.8,1.5 22.6,0.1 19.5,0.1 C16,0.1 14.1,1.1 14.1,2.6 C14.1,3.6 14.8,4.3 16,4.3 C17.2,4.3 18,3.6 18,2.5 C18,2 17.8,1.6 17.7,1.3 C17.9,1.2 18.3,1.2 18.6,1.2 C19.7,1.2 20.4,1.7 20.4,3.3 L20.4,4.7 C19.4,5 16.8,4.9 15.2,5.8 C14.2,6.3 13.7,7.4 13.7,8.3 C13.7,9.7 14.7,11.2 17,11.2 C18.3,11.2 19.5,10.6 20.5,9.7 L20.6,9.7 C21,10.5 21.3,11 22.6,11 L25,11 L25,10 C24.1,10 23.8,9.8 23.8,9.2 Z M20.3,8.7 C20,9.1 19.5,9.5 18.9,9.5 C18,9.5 17.4,8.8 17.4,7.8 C17.4,6.5 18.3,6 20.3,5.8 L20.3,8.7 Z"></path>
                </g>
                <path d="M12,0 L8.4,3.6 L8.4,7.4 C7.7,7.2 7.1,7 6.2,7 C2.6,7 0.7,9.8 0.7,12.8 C0.7,16 2.4,18.1 5.4,18.1 C6.7,18.1 7.7,17.5 8.4,16.6 L8.4,18 L13.1,18 L13.1,17 C12.3,17 12,16.7 12,16.2 L12,16 L12,14.8 L12,3.6 L12,0 L12,0 Z M6.7,16.3 C5.4,16.3 4.4,14.8 4.4,12.4 C4.4,9.5 5.2,8.2 6.5,8.2 C7.3,8.2 8,8.7 8.3,9.3 L8.3,15.7 C7.9,16.1 7.5,16.3 6.7,16.3 Z" id="Shape"></path>
            </g>
        </g>
    </g>
</svg>