<?xml version="1.0" encoding="UTF-8"?>
<svg width="308px" height="145px" viewBox="0 0 308 145" version="1.1" xmlns="http://www.w3.org/2000/svg" xmlns:xlink="http://www.w3.org/1999/xlink">
    <!-- Generator: Sketch 46.2 (44496) - http://www.bohemiancoding.com/sketch -->
    <title>UNFPA_logoL</title>
    <desc>Created with Sketch.</desc>
    <defs></defs>
    <g id="Page-1" stroke="none" stroke-width="1" fill="none" fill-rule="evenodd">
        <g id="UNFPA_logoL">
            <path d="M87.074,72.351 C87.074,80.934 80.129,87.883 71.555,87.883 C62.976,87.883 56.017,80.934 56.017,72.351 C56.017,63.778 62.976,56.826 71.555,56.826 C80.129,56.826 87.074,63.778 87.074,72.351" id="Fill-1" fill="#FFFFFF"></path>
            <path d="M87.074,127.671 C87.074,136.247 80.129,143.193 71.555,143.193 C62.976,143.193 56.017,136.247 56.017,127.671 C56.017,119.091 62.976,112.136 71.555,112.136 C80.129,112.136 87.074,119.091 87.074,127.671" id="Fill-2" fill="#FFFFFF"></path>
            <path d="M87.074,17.08 C87.074,25.651 80.129,32.601 71.555,32.601 C62.976,32.601 56.017,25.651 56.017,17.08 C56.017,8.503 62.976,1.547 71.555,1.547 C80.129,1.547 87.074,8.503 87.074,17.08" id="Fill-3" fill="#FFFFFF"></path>
            <path d="M31.098,72.351 C31.098,80.934 24.148,87.883 15.575,87.883 C7.003,87.883 0.041,80.934 0.041,72.351 C0.041,63.778 7.003,56.826 15.575,56.826 C24.148,56.826 31.098,63.778 31.098,72.351" id="Fill-4" fill="#FFFFFF"></path>
            <path d="M31.098,127.671 C31.098,136.247 24.155,143.193 15.575,143.193 C7.003,143.193 0.041,136.247 0.041,127.671 C0.041,119.091 7.003,112.136 15.575,112.136 C24.155,112.136 31.098,119.091 31.098,127.671" id="Fill-5" fill="#FFFFFF"></path>
            <path d="M31.098,17.08 C31.098,25.651 24.155,32.601 15.575,32.601 C7.003,32.601 0.041,25.651 0.041,17.08 C0.041,8.503 7.003,1.547 15.575,1.547 C24.155,1.547 31.098,8.503 31.098,17.08" id="Fill-6" fill="#FFFFFF"></path>
            <path d="M167.141,91.261 C167.148,91.269 167.156,91.269 167.168,91.292" id="Fill-7" fill="#EC912D"></path>
            <path d="M144.914,127.671 C144.914,136.247 137.96,143.193 129.392,143.193 C120.811,143.193 113.861,136.247 113.861,127.671 C113.861,119.091 120.811,112.136 129.392,112.136 C137.96,112.136 144.914,119.091 144.914,127.671" id="Fill-8" fill="#FFFFFF"></path>
            <path d="M144.914,17.08 C144.914,25.651 137.96,32.601 129.392,32.601 C120.811,32.601 113.861,25.651 113.861,17.08 C113.861,8.503 120.811,1.547 129.392,1.547 C137.96,1.547 144.914,8.503 144.914,17.08" id="Fill-9" fill="#FFFFFF"></path>
            <path d="M133.19,73.347 C132.955,73.226 132.775,73.429 132.775,73.429 L132.432,73.691 C132.432,73.691 132.337,73.828 132.411,73.902 C132.49,73.969 132.681,73.812 132.681,73.812 L133.002,73.617 L133.225,73.517 C133.225,73.517 133.439,73.444 133.19,73.347 Z M142.003,68.944 C141.988,69.532 141.914,70.106 141.811,70.672 C141.894,70.858 142.253,71.108 142.293,71.317 C142.32,71.528 141.945,71.798 141.827,71.603 C141.757,71.513 141.699,71.47 141.64,71.439 C141.116,73.497 140.077,75.359 138.655,76.863 L139.667,77.887 C139.706,77.787 139.706,77.684 139.706,77.584 C139.64,77.227 139.757,77.119 139.827,77.119 C139.909,77.119 140.366,77.127 140.507,77.568 C140.55,77.723 140.577,77.555 140.668,77.84 C140.621,77.984 140.722,78.293 140.722,78.293 C140.722,78.293 140.785,78.406 140.82,78.547 C140.843,78.622 140.808,78.706 140.785,78.854 C143.258,76.232 144.813,72.769 144.958,68.944 L142.003,68.944 Z M138.214,81.047 C138.815,80.638 139.378,80.2 139.909,79.713 L139.815,79.621 C139.706,79.643 139.601,79.629 139.542,79.568 C139.479,79.486 139.437,79.373 139.401,79.215 L137.862,77.684 C137.725,77.863 137.534,78.006 137.534,78.006 L137.519,78.389 C138.491,78.854 138.726,79.258 138.714,79.465 C138.69,79.674 138.014,80.253 138.014,80.427 C138.014,80.606 138.269,80.747 138.257,80.93 C138.253,80.98 138.237,81.019 138.214,81.047 Z M129.931,81.11 L129.931,83.764 C130.731,83.732 131.513,83.635 132.263,83.499 C131.83,83.138 131.649,83.138 131.548,83.077 C131.392,82.979 131.24,82.716 131.079,82.296 C130.919,81.87 131.384,81.841 131.279,81.54 C131.161,81.229 130.196,81.341 130.196,81.341 C130.196,81.341 130.341,81.522 129.931,81.11 Z M128.798,80.877 C125.84,80.747 123.137,79.643 121.046,77.84 C121.156,77.969 121.265,78.074 121.401,78.188 C121.984,78.698 122.066,78.997 122.021,79.266 C121.984,79.555 120.69,79.516 120.69,79.516 L120.663,79.531 C120.214,79.75 119.53,79.884 119.26,79.839 C119.096,79.809 119.02,79.713 118.917,79.621 L118.796,79.75 C121.444,82.142 124.941,83.635 128.798,83.764 L128.798,80.877 Z M116.754,70.024 C116.705,69.665 116.658,69.321 116.647,68.944 L113.713,68.944 C113.77,70.379 114.009,71.769 114.445,73.077 C114.455,73.077 114.467,73.069 114.475,73.061 C114.588,72.991 114.502,72.935 114.537,72.776 C114.588,72.626 114.732,72.798 114.783,72.679 C114.83,72.565 114.732,72.521 114.732,72.409 C114.732,72.302 114.884,72.265 114.893,72.167 C114.92,72.067 114.83,72.233 114.794,71.985 C114.769,71.739 114.92,71.462 114.92,71.423 C114.92,71.399 115.022,71.192 115.154,70.919 C115.287,70.649 115.783,70.514 115.947,70.332 C115.982,70.293 116.084,69.981 116.393,69.926 C116.537,69.915 116.647,69.952 116.754,70.024 Z M116.647,67.816 C116.779,64.742 118.045,61.956 120.022,59.85 L117.971,57.783 C115.438,60.418 113.849,63.939 113.713,67.816 L116.647,67.816 Z M120.837,59.061 C122.962,57.166 125.742,55.982 128.798,55.857 L128.798,52.974 C124.94,53.093 121.433,54.599 118.784,56.994 L120.837,59.061 Z M129.931,55.857 C132.298,55.968 134.494,56.716 136.362,57.934 C136.26,57.783 136.182,57.596 136.162,57.548 C136.1,57.445 136.315,57.377 136.315,57.377 C135.971,56.919 135.9,56.716 136.022,56.621 C136.143,56.521 136.475,56.802 136.654,57.084 C136.826,57.377 137.065,57.662 137.21,57.682 C137.358,57.709 137.678,57.701 137.752,57.986 C137.831,58.256 137.928,58.317 138.014,58.709 C138.034,58.768 138.042,58.822 138.069,58.879 L138.929,58.023 C138.839,57.836 138.714,57.619 138.452,57.49 L137.823,57.701 C137.823,57.701 137.6,57.807 137.53,57.662 C137.448,57.514 137.448,57.213 137.448,57.213 C137.448,57.213 137.206,57.063 137.206,56.935 C137.206,56.802 137.338,56.4 137.237,56.257 C137.155,56.109 136.963,55.99 136.963,55.99 C136.963,55.99 136.862,55.494 136.768,55.255 C136.682,55.04 136.17,54.607 136.17,54.607 C136.17,54.607 136.166,54.562 136.166,54.509 C134.267,53.587 132.162,53.058 129.931,52.974 L129.931,55.857 Z M138.726,59.94 C138.804,60.031 138.878,60.106 138.96,60.204 C139.175,60.46 139.401,60.729 139.601,61.006 C139.706,61.143 139.808,61.292 139.909,61.436 C139.996,61.405 140.101,61.307 140.206,61.264 C140.398,61.143 140.507,61.264 140.562,61.503 C140.64,61.753 140.202,61.722 140.343,61.956 C140.398,62.03 140.738,61.932 140.789,61.956 C140.828,61.993 140.886,62.151 140.757,62.292 C140.664,62.392 140.573,62.436 140.558,62.526 C140.605,62.608 140.64,62.667 140.683,62.743 C140.843,62.819 141.132,62.667 141.132,62.931 C141.132,63.229 141.367,63.442 141.398,63.706 C141.421,63.878 141.355,63.976 141.273,64.117 C141.39,64.433 141.492,64.75 141.574,65.08 C141.656,65.019 141.765,64.99 141.855,65.005 C141.855,65.011 141.855,65.058 141.855,65.058 C141.855,65.058 141.894,65.359 141.871,65.486 C141.855,65.585 141.827,65.824 141.804,65.982 C141.827,66.14 141.855,66.283 141.871,66.44 C141.929,66.621 141.96,66.853 141.988,67.072 L141.96,67.072 C141.988,67.32 142.003,67.562 142.003,67.816 L144.958,67.816 C144.875,65.853 144.453,64.003 143.711,62.3 C143.66,62.292 143.605,62.284 143.554,62.284 C143.554,62.284 143.313,62.458 143.121,62.458 C142.945,62.458 142.843,62.21 142.843,62.21 C142.843,62.21 142.023,61.12 141.894,61.03 C141.894,61.03 141.749,60.886 141.421,60.843 C141.081,60.811 141.136,60.651 141.136,60.651 C141.136,60.651 140.746,60.475 140.448,60.377 L140.206,59.893 C140.206,59.893 140.222,59.729 140.183,59.663 C140.147,59.608 139.585,59.592 139.585,59.592 C139.585,59.592 139.335,59.467 139.202,59.332 L138.726,59.829 C138.737,59.864 138.737,59.901 138.726,59.94 Z M150.239,68.372 C150.239,79.758 140.878,88.985 129.345,88.985 C117.788,88.985 108.415,79.758 108.415,68.372 C108.415,56.974 117.788,47.742 129.345,47.742 C140.878,47.742 150.239,56.974 150.239,68.372 Z M129.384,64.877 L129.345,64.877 C129.079,64.877 128.821,64.906 128.579,64.96 C128.637,64.99 128.704,65.019 128.665,65.127 C128.602,65.293 128.798,65.742 128.798,65.742 C128.512,66.267 127.5,66.44 127.5,66.44 C127.324,66.568 127.395,66.785 127.18,66.915 C126.956,67.043 126.879,67.125 126.75,67.289 C126.648,67.449 126.676,67.606 126.609,67.793 C126.551,67.988 126.697,68.086 126.648,68.221 C126.594,68.34 126.535,68.764 126.448,68.875 C126.372,68.989 126.192,68.828 126.086,68.793 C125.969,68.764 125.902,68.199 125.844,68.125 C125.828,68.102 125.812,68.102 125.797,68.125 C125.789,68.199 125.789,68.29 125.789,68.372 C125.789,68.611 125.812,68.853 125.863,69.079 C126.006,69.026 125.977,68.981 126.016,68.973 C126.372,68.95 126.147,69.2 126.301,69.2 C126.473,69.2 126.572,69.131 126.586,68.807 C126.594,68.482 126.887,68.461 126.999,68.482 C127.088,68.492 127.006,68.717 127.047,68.785 C127.094,68.846 127.211,68.785 127.211,68.989 C127.211,69.184 126.856,69.416 126.797,69.709 C126.742,70.01 126.652,70.069 126.535,70.098 C126.348,70.13 126.389,69.754 126.278,69.926 C126.211,70.055 126.52,70.417 126.52,70.417 C126.719,70.25 126.789,70.106 126.856,69.965 C126.926,69.821 127.067,69.836 127.227,69.739 C127.387,69.641 127.395,69.161 127.387,69.055 C127.363,68.936 127.563,68.967 128.34,68.93 C129.153,68.883 129.075,69.137 129.024,69.348 C128.985,69.588 129.137,69.313 129.137,69.543 C129.137,69.793 128.845,70.01 128.759,70.222 C128.689,70.43 128.888,70.454 128.778,70.543 C128.689,70.643 128.637,70.76 128.637,70.76 C128.223,71.243 128.189,70.95 127.942,71.054 C127.676,71.174 127.387,71.122 127.387,71.122 C127.324,71.137 127.282,71.153 127.227,71.174 C127.817,71.603 128.543,71.853 129.345,71.853 C129.513,71.853 129.685,71.835 129.856,71.814 C129.942,71.415 130.079,70.76 130.396,70.596 C130.739,70.399 131.091,70.688 131.279,70.61 C131.451,70.534 131.505,70.362 131.548,70.25 C131.595,70.138 131.704,69.821 131.634,69.594 C131.548,69.371 131.384,69.469 131.341,69.313 C131.291,69.145 131.634,69.137 131.459,68.93 C131.193,68.588 131.255,68.34 131.161,68.266 C131.064,68.191 130.989,68.29 130.884,68.133 C130.771,67.988 130.931,67.875 130.95,67.719 C130.962,67.547 131.22,67.523 131.189,67.387 C131.161,67.246 131.013,67.363 130.974,67.185 C130.95,67.019 131.091,66.75 131.091,66.75 C131.091,66.75 130.685,66.766 130.63,66.621 C130.583,66.463 130.325,66.117 130.032,65.967 C129.739,65.824 129.278,65.922 129.278,65.922 C129.208,65.689 128.868,65.447 128.868,65.447 C128.594,65.085 128.759,65.135 128.907,64.966 C129.052,64.816 129.345,64.99 129.396,64.945 C129.411,64.921 129.399,64.9 129.384,64.877 Z M141.519,57.018 C142.187,57.701 142.785,58.451 143.313,59.248 C143.464,59.381 143.719,59.639 143.773,59.821 C143.789,59.911 143.789,59.963 143.813,60.016 C143.852,60.09 143.906,60.174 143.941,60.256 C143.949,60.272 143.988,60.295 143.992,60.323 C144.227,60.571 144.285,60.692 144.438,60.991 C144.508,61.135 144.531,61.27 144.547,61.397 C145.469,63.361 146.016,65.531 146.094,67.816 L149.099,67.816 C148.966,62.819 146.915,58.288 143.644,54.908 L141.519,57.018 Z M130.356,51.856 C132.818,52.011 135.139,52.683 137.206,53.767 L137.792,53.517 C137.792,53.517 137.6,53.481 137.881,53.536 C138.159,53.587 138.069,53.56 138.397,53.673 C138.737,53.78 138.757,53.673 138.898,53.727 C139.03,53.78 139.065,54.013 139.226,54.144 C139.401,54.269 139.355,54.163 139.585,54.269 C139.808,54.38 140.093,54.716 140.167,54.873 C140.241,55.022 140.378,54.794 140.507,55.564 C140.507,55.564 140.769,55.841 140.917,56.025 L142.824,54.11 C139.433,50.989 134.916,49.033 129.931,48.881 L129.931,51.309 C129.958,51.29 130.009,51.29 130.067,51.331 C130.282,51.458 130.368,51.438 130.353,51.668 C130.353,51.721 130.356,51.797 130.356,51.856 Z M117.983,56.193 C120.851,53.587 124.631,51.965 128.798,51.829 L128.798,48.881 C123.809,49.008 119.28,50.965 115.869,54.084 L117.983,56.193 Z M112.572,67.816 C112.71,63.622 114.44,59.829 117.17,56.98 L115.06,54.873 C111.769,58.256 109.702,62.804 109.564,67.816 L112.572,67.816 Z M117.174,79.766 C116.821,79.379 116.467,78.997 116.155,78.59 C115.853,78.481 115.869,78.397 115.563,78.156 C115.229,77.887 115.42,77.613 115.287,77.555 C115.209,77.531 115.209,77.684 115.186,77.715 C115.15,77.766 114.986,77.787 114.794,77.723 C114.603,77.66 114.416,77.391 114.416,77.391 C114.091,77.141 114.128,76.832 114.07,76.736 C114.009,76.645 113.807,76.736 113.695,76.707 C113.585,76.668 113.585,76.488 113.46,76.412 C113.357,76.359 113.181,76.398 113.181,76.398 C113.107,76.277 112.806,75.841 112.748,75.811 C112.748,75.811 112.748,76.103 112.503,76.103 C112.231,76.103 111.896,75.547 111.774,75.481 C111.669,75.428 111.603,75.607 111.442,75.504 C111.29,75.383 111.142,74.836 111.12,74.737 C111.103,74.64 110.993,74.503 110.935,74.339 C110.87,74.171 110.958,73.347 110.993,73.241 C111.071,73.038 111.15,73.255 111.22,72.935 C111.278,72.619 111.47,72.632 111.606,72.626 C111.753,72.61 111.806,72.664 111.878,72.776 C111.939,72.89 112.142,72.798 112.247,72.745 C112.337,72.703 112.247,72.565 112.253,72.479 C112.267,72.401 112.482,72.438 112.63,72.362 C112.771,72.28 112.995,72.233 113.048,72.37 L113.07,72.415 C112.783,71.293 112.607,70.138 112.578,68.944 L109.564,68.944 C109.702,73.961 111.774,78.494 115.07,81.87 L117.174,79.766 Z M128.798,84.897 C124.639,84.769 120.862,83.146 117.995,80.546 L115.887,82.657 C119.288,85.777 123.815,87.723 128.798,87.85 L128.798,84.897 Z M140.699,80.517 C139.772,81.364 138.757,82.11 137.655,82.731 C137.639,82.763 137.627,82.802 137.62,82.821 C137.405,83.401 136.94,83.881 136.826,84.078 C136.709,84.265 136.654,84.139 136.413,84.331 C136.166,84.52 136.315,84.669 136.033,84.784 C135.749,84.889 135.553,84.973 135.553,84.973 C135.553,84.973 134.74,85.828 133.912,84.92 C133.764,84.81 133.501,84.769 133.334,84.589 L133.225,84.454 C132.162,84.7 131.064,84.853 129.931,84.889 L129.931,87.85 C134.912,87.697 139.417,85.748 142.816,82.628 L140.699,80.517 Z M146.094,68.944 C145.95,73.122 144.227,76.894 141.511,79.734 L143.632,81.831 C146.891,78.473 148.954,73.941 149.099,68.944 L146.094,68.944 Z M139.167,67.816 L140.878,67.816 C140.859,67.344 140.808,66.884 140.722,66.426 C140.652,66.555 140.589,66.672 140.468,66.809 C140.3,66.998 140.105,66.884 139.909,66.982 C139.714,67.072 139.858,67.26 139.827,67.387 C139.796,67.516 139.996,67.471 139.921,67.648 C139.843,67.846 139.64,67.727 139.526,67.727 C139.448,67.727 139.307,67.625 139.167,67.816 Z M135.776,62.765 C135.928,62.925 136.053,63.093 136.194,63.253 C136.233,63.218 136.323,63.2 136.542,63.237 C136.881,63.3 137.42,63.388 137.678,63.419 C138.006,63.464 138.108,64.074 138.292,64.156 C138.479,64.23 138.436,64.298 138.452,64.479 C138.479,64.66 138.308,64.609 138.339,64.726 C138.366,64.863 138.479,64.99 138.616,64.863 C138.737,64.726 138.972,64.546 139.315,64.609 C139.878,64.703 139.683,65.042 139.909,65.095 C140.132,65.171 140.05,65.214 140.132,65.308 C140.21,65.412 140.105,65.539 139.972,65.585 C139.843,65.628 139.843,65.728 139.843,65.824 C139.843,65.922 139.714,66.043 139.706,66.132 C139.683,66.206 139.585,66.484 139.706,66.484 C139.815,66.484 139.921,66.594 140.023,66.463 C140.108,66.343 140.558,65.906 140.55,65.668 L140.55,65.599 C140.433,65.143 140.288,64.691 140.108,64.246 C140.05,64.136 139.996,64.05 139.937,64.003 C139.733,63.849 138.995,63.479 138.862,63.285 C138.737,63.093 138.901,63.05 139.03,62.925 C139.12,62.823 139.226,62.608 139.183,62.397 C139.12,62.3 139.05,62.194 138.98,62.089 C138.839,61.909 138.581,61.569 138.276,61.157 C138.144,60.991 138.006,60.843 137.862,60.678 L135.776,62.765 Z M129.931,59.911 C131.853,60.039 133.603,60.796 134.971,61.977 L137.049,59.893 C135.143,58.203 132.666,57.123 129.931,56.986 L129.931,59.911 Z M123.731,61.94 C125.102,60.767 126.874,60.016 128.798,59.911 L128.798,56.986 C126.055,57.107 123.566,58.182 121.644,59.856 L123.731,61.94 Z M122.3,63.479 C122.5,63.218 122.691,62.968 122.91,62.737 L120.835,60.647 C119.045,62.556 117.917,65.05 117.788,67.816 L119.063,67.816 C119.012,67.764 118.905,67.57 118.94,67.432 C118.975,67.289 118.858,66.777 118.896,66.69 C118.928,66.605 119.053,66.508 119.124,66.426 C119.174,66.322 119.124,66.175 119.163,66.117 C119.204,66.043 119.321,65.906 119.429,65.787 C119.515,65.679 119.491,65.382 119.768,65.261 C120.034,65.127 120.097,65.273 120.28,65.246 C120.479,65.214 120.46,64.966 120.46,64.966 C120.46,64.966 120.394,64.877 120.511,64.699 C120.624,64.509 121.304,64.337 121.304,64.337 C121.304,64.337 121.277,64.164 121.704,63.831 C121.968,63.622 122.189,63.524 122.3,63.479 Z M120.765,67.816 C120.772,67.688 120.78,67.57 120.796,67.441 C120.69,67.394 120.565,67.363 120.452,67.363 C120.144,67.363 119.87,67.547 119.885,67.816 L120.765,67.816 Z M118.747,68.944 L117.788,68.944 C117.813,69.665 117.924,70.356 118.085,71.032 C118.247,70.958 118.233,70.866 118.241,70.76 C118.256,70.649 118.409,70.672 118.46,70.582 C118.504,70.485 118.499,70.485 118.438,70.43 C118.393,70.379 118.241,70.262 118.206,70.098 C118.17,69.92 118.295,69.778 118.366,69.588 C118.436,69.387 118.354,69.325 118.446,69.153 C118.538,68.989 118.479,69.153 118.747,68.944 Z M122.925,74.025 C121.945,72.94 121.242,71.603 120.925,70.138 C120.905,70.13 120.886,70.106 120.866,70.069 C120.741,69.86 120.55,69.926 120.55,69.926 C120.55,69.926 120.46,70.557 120.46,70.596 C120.46,70.625 120.409,70.95 120.261,70.935 C120.116,70.911 120.058,70.76 120.058,70.76 C120.058,70.76 119.835,70.776 119.807,70.696 C119.768,70.61 119.571,70.417 119.78,70.243 C119.976,70.063 119.948,70.417 120.097,70.222 C120.241,70.024 119.925,69.231 120.155,69.2 C120.321,69.184 120.565,69.567 120.624,69.588 C120.655,69.588 120.733,69.567 120.815,69.532 C120.804,69.332 120.772,69.137 120.765,68.944 L119.483,68.944 C119.429,69.079 119.46,69.549 119.335,69.633 C119.211,69.709 118.747,69.543 118.696,69.844 C118.616,70.278 118.847,70.086 118.847,70.387 C118.847,70.688 118.706,70.5 118.796,70.782 C118.896,71.079 119.358,71.174 119.429,71.505 C119.515,71.853 119.644,72 119.683,72.093 C119.718,72.167 119.483,72.349 119.638,72.581 C119.78,72.823 119.925,73.21 119.885,73.347 C119.854,73.476 119.854,73.857 119.999,74.474 C120.148,75.09 120.155,74.683 120.374,75.09 C120.479,75.293 120.505,75.52 120.491,75.699 C120.597,75.841 120.722,75.968 120.837,76.089 L122.925,74.025 Z M127.391,76.629 C126.016,76.316 124.777,75.684 123.748,74.796 L121.663,76.894 C123.255,78.293 125.25,79.258 127.454,79.606 C127.11,79.41 126.874,79.281 126.856,79.258 C126.823,79.178 126.727,78.981 126.403,78.603 C126.086,78.219 126.147,77.937 126.147,77.937 C126.372,77.863 126.434,77.734 126.434,77.734 C126.434,77.734 126.572,77.148 126.86,76.914 C127,76.809 127.18,76.721 127.391,76.629 Z M134.061,75.445 C133.936,75.52 133.81,75.607 133.67,75.684 C133.686,75.684 133.693,75.691 133.713,75.699 C133.951,75.772 134.85,75.886 135.115,76.111 C135.365,76.344 135.846,76.412 135.846,76.412 C136.182,76.375 136.397,76.367 136.542,76.352 L136.166,75.976 C135.928,75.915 135.71,75.811 135.682,75.788 C135.303,75.607 135.389,75.87 135.045,75.684 C134.795,75.547 134.326,75.481 134.061,75.445 Z M140.589,70.958 C140.746,70.309 140.843,69.633 140.878,68.944 L139.136,68.944 C139.256,69.071 139.397,69.153 139.472,69.237 C139.651,69.408 139.585,69.618 139.62,69.793 C139.651,69.965 139.804,69.952 140.093,70.222 C140.378,70.5 140.343,70.739 140.464,70.897 C140.507,70.942 140.538,70.958 140.589,70.958 Z M136.143,73.542 C136.068,73.633 136.002,73.707 135.94,73.791 C135.951,73.785 135.971,73.768 135.986,73.754 C136.162,73.648 136.26,73.836 136.377,73.662 C136.487,73.489 136.487,73.347 136.585,73.194 C136.682,73.038 136.983,73.022 137.178,73.03 C137.37,73.038 137.358,72.97 137.472,73.302 C137.577,73.648 137.545,73.941 137.545,73.941 C137.639,74.018 137.374,74.28 137.358,74.836 C137.338,75.135 137.194,74.941 137.21,75.316 L137.163,75.367 L137.37,75.572 C137.385,75.547 137.417,75.504 137.433,75.445 C137.561,75.156 137.749,75.008 137.835,75.148 C137.905,75.242 137.967,75.547 138.042,75.856 C139.093,74.683 139.894,73.278 140.378,71.739 L140.296,71.761 C140.183,71.761 139.796,71.86 139.425,71.911 C139.065,71.956 138.745,71.942 138.745,71.942 C138.745,71.942 138.545,71.761 138.479,71.872 C138.382,71.993 138.323,72.341 138.014,72.265 C137.721,72.198 137.877,71.872 137.776,71.853 C137.678,71.814 137.792,71.977 137.678,72.159 C137.561,72.323 137.256,72.769 137.21,72.86 C137.163,72.956 136.561,72.985 136.475,73.13 C136.413,73.241 136.303,73.444 136.143,73.542 Z M133.642,71.853 L134.478,72.687 C134.51,72.521 134.365,72.189 134.365,72.189 L133.982,72.008 L133.834,71.911 L133.912,71.731 L133.81,71.694 L133.642,71.853 Z M133.135,74.683 C133.26,74.616 133.38,74.534 133.509,74.458 C133.38,74.444 133.236,74.481 133.178,74.608 C133.17,74.64 133.154,74.669 133.135,74.683 Z M124.547,74 C125.581,74.867 126.86,75.445 128.266,75.637 C128.278,75.684 128.278,75.73 128.29,75.782 C128.29,75.782 128.379,75.856 128.512,75.87 C128.673,75.894 128.896,75.87 129.075,75.684 C129.278,75.481 129.235,75.623 129.376,75.594 C129.376,75.594 129.513,75.367 129.653,75.18 C129.794,75.106 129.856,74.91 129.919,74.894 L129.931,75.684 C130.931,75.607 131.877,75.34 132.724,74.91 C132.564,74.894 132.361,74.646 132.302,74.64 C132.205,74.608 132.384,74.934 132.396,75.008 C132.411,75.09 131.951,75.234 131.916,75.18 C131.767,74.934 131.544,74.894 131.533,74.941 C131.49,75.34 131.326,75.234 131.326,75.234 C130.931,74.669 130.806,75.029 130.615,74.828 C130.423,74.616 130.325,74.698 130.325,74.698 C130.177,74.683 130.067,74.836 129.931,74.887 C129.856,74.91 129.794,75.106 129.653,75.18 C129.513,75.367 129.376,75.594 129.376,75.594 C129.235,75.623 129.278,75.481 129.075,75.684 C128.896,75.87 128.673,75.894 128.512,75.87 C128.379,75.856 128.29,75.788 128.29,75.788 C128.278,75.73 128.278,75.684 128.266,75.637 C128.266,75.52 128.254,75.428 128.262,75.34 C128.266,74.796 128.356,74.646 128.379,74.608 C128.442,74.511 128.637,74.558 128.798,74.564 L128.798,73.897 L128.778,73.797 C128.759,73.746 128.778,73.715 128.798,73.691 L128.798,72.956 C127.942,72.86 127.145,72.534 126.492,72.046 L124.547,74 Z M124.742,69.274 C124.731,69.2 124.715,69.131 124.711,69.055 C124.625,69.145 124.352,69.108 124.389,69.237 C124.397,69.282 124.547,69.282 124.742,69.274 Z M122.109,70.214 C122.402,71.332 122.962,72.362 123.731,73.21 L125.684,71.254 C125.602,71.153 125.523,71.048 125.441,70.942 C125.441,70.942 125.434,70.942 125.43,70.95 C125.256,71.032 125.381,71.254 125.277,71.348 C125.191,71.423 125.094,71.544 125.035,71.671 C124.988,71.798 124.68,72.093 124.508,71.942 C124.363,71.782 124.477,71.048 124.255,71.032 C124.152,71.017 124.205,71.09 124.255,71.372 C124.308,71.663 124.105,71.528 124.015,71.481 C123.918,71.423 123.848,71.372 123.613,71.174 C123.373,70.958 123.554,70.821 123.554,70.821 C123.554,70.821 123.351,70.657 123.289,70.672 C123.226,70.688 123.261,70.821 123.098,70.76 C122.937,70.688 122.937,70.399 122.937,70.399 C122.937,70.399 122.773,70.399 122.37,70.278 C122.284,70.25 122.191,70.229 122.109,70.214 Z M128.798,61.038 C127.172,61.157 125.705,61.774 124.527,62.743 L125.652,63.871 C125.856,63.894 125.816,64.058 126.039,64.117 C126.264,64.187 126.243,64.074 126.415,64.05 C126.586,64.043 126.48,64.156 126.551,64.246 C126.609,64.337 126.742,64.187 126.742,64.187 C126.926,64.074 126.879,64.269 127.094,64.164 C127.324,64.074 127.19,63.939 127.301,63.796 C127.411,63.659 127.387,63.577 127.387,63.419 C127.387,63.253 127.588,63.093 127.676,62.985 C127.754,62.88 127.848,62.886 127.942,63.013 C128.02,63.14 127.836,63.218 127.881,63.324 C127.926,63.396 128.262,63.285 128.798,63.2 L128.798,61.038 Z M133.979,62.632 C132.861,61.737 131.459,61.165 129.931,61.043 L129.931,63.194 C130.38,63.277 130.716,63.419 130.716,63.419 C130.716,63.419 130.79,63.396 130.79,63.388 C131.04,62.925 131.384,62.985 131.482,62.925 C131.571,62.854 131.548,62.759 131.677,62.632 C131.802,62.495 132.005,62.661 132.037,62.78 C132.08,62.886 132.087,63.367 131.814,63.772 C131.665,63.984 131.451,64.082 131.255,64.156 C131.603,64.314 131.916,64.509 132.209,64.726 L132.424,64.515 C132.443,64.458 132.466,64.405 132.466,64.405 C132.466,64.405 132.548,64.358 132.685,64.261 L133.615,63.324 C133.591,63.324 133.568,63.308 133.525,63.285 C133.419,63.194 133.127,63.163 133.686,62.794 C133.795,62.722 133.893,62.667 133.979,62.632 Z M135.166,63.786 C135.115,63.712 135.045,63.646 134.979,63.569 L134.772,63.772 C134.885,63.91 135.084,64.117 135.029,64.021 C134.975,63.939 135.096,63.96 135.166,63.786 Z M138.69,52.935 C138.827,52.825 138.862,52.974 139.011,53.015 C139.159,53.048 139.159,52.909 139.378,53.015 C139.601,53.112 139.659,53.276 139.667,53.427 C139.706,53.579 139.796,53.706 139.827,53.814 C139.862,53.931 139.585,54.084 139.417,53.986 C139.256,53.896 139.065,53.587 139.065,53.587 L138.616,53.253 C138.616,53.253 138.553,53.048 138.69,52.935 Z M130.22,51.063 C130.22,51.063 130.341,50.897 130.442,50.94 C130.552,50.985 130.81,50.989 130.81,50.989 L131.478,50.749 L132.005,50.52 L132.205,50.409 C132.205,50.409 132.955,50.268 133.682,50.856 C133.764,50.928 133.834,50.985 133.885,51.022 L133.682,50.809 C133.682,50.809 134.251,51.313 133.885,51.022 L133.81,51.207 C133.81,51.207 133.353,51.497 133.178,51.532 C133.002,51.571 132.724,51.497 132.724,51.497 L132.337,51.438 L131.49,51.668 C131.49,51.668 130.95,51.721 130.65,51.497 C130.353,51.27 130.251,51.207 130.251,51.207 L130.22,51.063 Z M138.96,60.204 C139.065,60.323 139.409,60.761 139.554,60.909 C139.585,60.94 139.601,60.983 139.601,61.006 C139.401,60.729 139.175,60.46 138.96,60.204 L138.96,60.204 Z" id="Fill-10" fill="#FFFFFF"></path>
            <path d="M140.093,90.157 C140.206,90.179 141.718,89.862 144.078,89.615 C146.446,89.361 147.391,89.471 149.091,89.03 C150.97,88.549 151.924,87.557 152.415,87.016 C152.415,87.016 152.541,86.957 152.494,87.084 C152.467,87.19 151.294,89.434 148.571,90.796 C145.856,92.155 142.968,91.825 142.253,91.675 C141.535,91.532 140.511,91.21 139.46,90.925 C138.397,90.646 137.03,90.36 136.374,90.397 C136.374,90.397 136.288,90.263 136.514,90.218 C136.862,90.163 138.194,89.878 139.046,89.494 C140.53,88.827 141.772,87.354 142.761,86.428 C143.742,85.506 145.371,83.846 146.317,83.431 C146.317,83.431 146.399,83.439 146.317,83.536 C146.239,83.635 145.547,84.603 145.164,85.529 C144.801,86.443 144.324,87.425 143.636,88.211 C142.925,88.985 141.968,89.674 140.093,90.083 C140.093,90.083 139.972,90.157 140.093,90.157 Z M156.904,79.839 C156.893,79.849 156.592,82.642 153.885,85.084 C151.857,86.934 150.138,87.627 149.169,87.865 C148.243,88.092 147.192,88.211 146.317,88.391 C145.445,88.555 144.148,88.905 143.891,89.03 C143.891,89.03 143.793,89.069 143.844,88.985 C143.906,88.894 144.25,88.761 145.203,87.505 C146.152,86.227 146.973,83.349 146.973,83.349 C146.973,83.349 147.446,81.86 147.942,80.838 C148.439,79.833 150.005,77.6 150.306,77.368 C150.306,77.368 150.458,77.285 150.442,77.391 C150.427,77.48 150.076,78.08 149.876,79.064 C149.521,80.673 149.446,82.35 149.243,82.979 C149.036,83.635 148.688,84.81 147.903,85.799 C146.997,86.912 146.997,86.783 146.286,87.431 C146.137,87.519 146.309,87.505 146.309,87.505 C146.309,87.505 147.04,87.084 147.567,86.685 C148.086,86.277 148.68,85.756 149.689,85.147 C150.685,84.552 151.755,84.272 153.713,83.122 C155.674,81.974 156.401,80.696 156.795,79.839 C156.795,79.839 156.893,79.66 156.904,79.839 Z M152.302,71.481 C152.302,71.481 152.173,72.362 152.263,72.999 C152.361,73.648 153.06,76.277 153.029,77.707 C152.99,79.125 152.647,80.366 151.767,81.644 L151.834,81.681 C151.834,81.681 153.334,79.568 154.045,78.638 C154.772,77.715 156.276,76.316 156.998,75.512 C157.741,74.683 158.369,73.511 158.64,71.919 L158.69,71.919 C158.69,71.919 159.085,74.323 158.093,76.6 C157.096,78.878 156.046,79.713 155.326,80.382 C154.607,81.055 152.478,82.478 151.427,83.077 C150.384,83.688 149.583,84.354 149.583,84.354 C149.583,84.354 149.497,84.331 149.497,84.296 C149.497,84.259 150.306,82.739 150.54,81.817 C150.751,80.883 150.943,79.35 151.002,78.188 C151.06,77.016 151.423,72.798 152.205,71.489 L152.302,71.481 Z M151.924,64.9 C151.897,64.81 151.783,64.718 151.767,64.906 C151.755,65.095 151.755,66.966 152.31,69.295 C152.701,70.821 153.666,74.054 153.795,74.503 C154.01,75.266 153.959,77 153.772,77.631 C153.772,77.631 153.795,77.81 153.885,77.707 C153.975,77.6 154.912,76.021 155.447,75.435 C155.987,74.844 157.276,73.255 157.636,72.415 C157.98,71.587 158.792,69.778 158.663,67.17 C158.565,64.816 157.878,63.419 157.878,63.419 C157.878,63.419 157.78,63.353 157.808,63.442 C157.831,63.534 157.968,64.591 157.839,65.546 C157.694,66.5 157.487,67.125 156.94,68.305 C156.39,69.469 155.857,70.837 155.697,71.293 C155.553,71.761 155.365,72.843 155.256,73.602 C155.143,74.37 154.807,74.934 154.807,74.934 L154.728,74.871 C154.728,74.871 155.041,74.253 155.123,72.897 C155.197,71.505 154.631,70.055 154.24,69.387 C153.607,68.305 151.978,65.961 151.924,64.9 Z M154.705,55.931 C154.607,55.824 154.654,55.982 154.654,55.982 C154.654,55.982 155.447,57.123 155.416,59.098 C155.385,61.067 155.111,61.165 155.057,62.917 C155.01,64.66 155.272,66.809 155.272,66.809 L155.178,66.809 C155.178,66.809 155.131,65.705 154.553,64.413 C153.885,62.946 151.11,60.729 151.11,60.729 C151.11,60.729 150.173,59.829 150.076,59.315 C149.994,59.203 149.931,59.295 149.931,59.295 C149.931,59.295 150.158,60.713 150.951,62.466 C151.72,64.222 153.522,65.967 154.06,66.998 C154.584,68.02 154.889,68.144 155.283,70.106 L155.373,70.13 C155.373,70.13 155.385,69.274 156.003,67.453 C156.631,65.636 156.764,65.809 157.096,64.144 C157.433,62.466 157.182,60.782 157.08,60.436 C156.975,60.09 156.366,57.709 154.705,55.931 Z M154.35,63.05 C154.35,63.05 154.01,62.315 153.322,61.587 C152.986,61.225 152.404,60.592 151.673,60.008 C150.951,59.42 150.099,58.889 149.583,58.406 C148.509,57.412 147.348,55.599 147.379,53.97 C147.379,53.97 147.895,54.954 148.594,55.64 C149.294,56.332 151.009,57.279 151.712,57.926 C152.415,58.572 153.174,59.428 153.479,60.46 L153.607,60.46 C153.607,60.46 152.837,58.459 152.662,57.715 C152.475,56.974 152.31,55.744 151.873,54.535 C151.447,53.382 150.919,52.815 150.158,52.317 C150.123,52.317 150.22,52.251 150.22,52.251 C150.22,52.251 153.174,52.698 154.303,56.592 C154.619,57.715 154.275,60.323 154.342,61.351 C154.42,62.384 154.451,63.05 154.451,63.05 L154.35,63.05 Z M144.438,49.532 C144.438,49.532 145.348,49.846 146.36,50.231 C147.379,50.612 148.528,51.18 149.364,52.091 C150.744,53.587 151.087,54.954 151.423,56.08 C151.525,56.486 151.783,57.068 151.826,57.063 C151.881,57.049 151.787,57.152 151.787,57.152 C151.787,57.152 149.2,55.099 148.439,54.231 C147.685,53.372 146.751,51.803 146.086,51.145 C145.406,50.475 144.438,49.532 144.438,49.532 Z M111.224,92.112 C111.224,92.112 113.74,95.033 117.542,95.049 C120.538,95.062 122.605,93.401 122.605,93.401 C122.605,93.401 124.793,91.849 125.922,91.292 C126.856,90.827 128.266,91.202 128.266,91.202 C128.266,91.202 126.705,91.78 125.197,92.878 C123.656,93.99 123.137,94.359 121.638,95.875 L122.925,96.965 C122.925,96.965 123.859,95.65 125.641,94.117 C127.411,92.586 128.434,92.03 129.54,91.577 C129.54,91.577 133.135,93.194 136.076,96.928 L137.385,95.83 C137.385,95.83 134.428,92.796 130.778,91.229 C130.778,91.229 131.122,91.022 132.685,91.171 C133.369,91.239 134.002,91.78 134.76,92.315 C135.522,92.831 136.963,93.84 137.96,94.262 C138.964,94.681 140.28,94.951 141.367,94.982 C142.457,95.004 145.531,94.575 147.747,91.96 C147.747,91.96 147.735,91.884 147.669,91.923 C146.301,92.609 145.574,93.132 143.297,93.089 C142.082,93.05 140.558,92.686 138.596,91.804 C136.627,90.915 135.338,90.331 133.048,90.292 C130.763,90.286 129.685,90.675 129.47,90.761 C129.47,90.761 128.422,90.286 126.356,90.263 C124.289,90.247 122.439,90.849 121.269,91.419 C120.116,91.976 117.895,93.222 115.33,93.206 C112.888,93.194 111.36,92.054 111.314,92.034 C111.263,92.03 111.224,92.112 111.224,92.112 Z M118.896,90.263 C118.776,90.286 117.228,89.954 114.884,89.697 C112.517,89.443 111.474,89.584 109.76,89.151 C107.887,88.679 106.965,87.723 106.473,87.182 C106.473,87.182 106.352,87.131 106.383,87.24 C106.422,87.354 107.602,89.576 110.31,90.935 C113.021,92.3 116.068,91.884 116.77,91.735 C117.483,91.601 118.504,91.284 119.564,90.99 C120.612,90.706 121.996,90.435 122.644,90.45 C122.644,90.45 122.73,90.331 122.503,90.292 C122.168,90.239 121.242,90.204 119.979,89.565 C117.917,88.504 117.174,87.491 116.182,86.557 C115.201,85.619 113.519,84.01 112.578,83.591 C112.578,83.591 112.503,83.599 112.572,83.701 C112.654,83.807 113.341,84.737 113.732,85.654 C114.091,86.588 114.57,87.511 115.287,88.301 C115.982,89.077 117.026,89.773 118.896,90.179 C118.896,90.179 119.012,90.247 118.896,90.263 Z M101.929,80.028 C101.942,80.036 102.292,82.839 104.984,85.287 C107.031,87.131 108.893,87.834 109.88,88.053 C110.814,88.254 111.845,88.377 112.71,88.541 C113.585,88.716 114.802,89.007 115.06,89.144 C115.06,89.144 115.15,89.181 115.1,89.089 C115.037,89.007 114.701,88.851 113.752,87.58 C112.794,86.324 111.923,83.431 111.923,83.431 C111.923,83.431 111.54,82.274 111.056,81.255 C110.556,80.243 108.819,77.752 108.528,77.531 C108.528,77.531 108.379,77.441 108.395,77.531 C108.399,77.631 108.747,78.188 108.96,79.172 C109.157,80.149 109.452,82.455 109.668,83.103 C109.864,83.74 110.224,84.986 111.017,85.97 C111.923,87.092 111.923,86.947 112.63,87.603 C112.783,87.685 112.607,87.654 112.607,87.654 C112.607,87.654 111.806,87.221 111.298,86.805 C110.767,86.408 110.564,86.143 109.564,85.543 C108.561,84.934 107.176,84.46 105.215,83.304 C103.252,82.153 102.429,80.891 102.034,80.028 C102.034,80.028 101.942,79.856 101.929,80.028 Z M106.414,71.681 C106.414,71.681 106.568,72.589 106.473,73.226 C106.383,73.871 105.738,76.473 105.777,77.887 C105.818,79.305 106.195,80.552 107.082,81.831 L107.012,81.87 C107.012,81.87 105.517,79.766 104.796,78.841 C104.085,77.91 102.535,76.565 101.843,75.699 C101.163,74.836 100.376,73.762 100.124,72.167 L100.06,72.167 C100.06,72.167 99.713,74.534 100.71,76.809 C101.718,79.072 102.788,79.938 103.499,80.599 C104.218,81.274 106.371,82.673 107.415,83.272 C108.481,83.881 109.278,84.552 109.278,84.552 C109.278,84.552 109.36,84.528 109.36,84.489 C109.36,84.454 108.54,82.935 108.317,82.005 C108.098,81.086 107.902,79.555 107.852,78.381 C107.793,77.217 107.326,72.97 106.547,71.649 L106.414,71.681 Z M106.76,64.99 C106.793,64.9 106.907,64.802 106.922,64.998 C106.922,65.193 106.793,67.875 106.445,69.416 C106.109,70.95 105.078,74.157 104.973,74.608 C104.863,75.066 104.812,77.103 104.984,77.752 C104.984,77.752 104.973,77.93 104.891,77.816 C104.796,77.715 103.826,76.203 103.285,75.615 C102.749,75.023 101.435,73.407 101.083,72.573 C100.714,71.731 99.838,69.453 100.017,66.853 C100.198,64.261 100.784,63.622 100.784,63.622 C100.784,63.622 100.892,63.569 100.862,63.651 C100.833,63.749 100.692,64.765 100.823,65.71 C100.964,66.656 101.273,67.648 101.882,68.756 C102.509,69.891 102.874,71.061 103.015,71.528 C103.175,71.977 103.394,72.956 103.511,73.715 C103.635,74.481 103.951,75.047 103.951,75.047 L104.009,75.023 C104.009,75.023 103.679,74.413 103.648,73.017 C103.609,71.618 103.951,70.604 104.523,69.508 C105.109,68.393 106.709,66.035 106.76,64.99 Z M103.826,56.124 C103.914,56.025 103.976,56.138 103.976,56.138 C103.976,56.138 103.156,57.123 103.191,59.108 C103.226,61.088 103.554,61.429 103.601,63.179 C103.648,64.921 103.394,67.019 103.394,67.019 L103.496,67.019 C103.496,67.019 103.476,65.898 104.191,64.458 C104.891,63.013 107.635,60.767 107.635,60.767 C107.635,60.767 108.465,59.911 108.561,59.42 C108.636,59.295 108.692,59.443 108.692,59.443 C108.692,59.443 108.555,60.721 107.76,62.472 C106.977,64.23 105.318,65.937 104.796,66.958 C104.269,67.988 103.818,68.356 103.421,70.325 L103.328,70.332 C103.328,70.332 103.273,69.416 102.648,67.606 C102.034,65.787 101.867,66.056 101.538,64.382 C101.208,62.722 101.464,60.811 101.562,60.475 C101.663,60.127 102.151,57.912 103.826,56.124 Z M104.289,63.218 C104.289,63.218 104.621,62.487 105.316,61.76 C105.652,61.397 106.242,60.767 106.965,60.182 C107.704,59.592 108.54,58.995 109.077,58.506 C110.149,57.525 111.144,55.712 111.106,54.084 C111.106,54.084 110.71,55.048 110.011,55.734 C109.302,56.432 107.59,57.422 106.877,58.076 C106.172,58.728 105.39,59.608 105.086,60.651 L105.035,60.639 C105.035,60.639 105.76,58.596 105.943,57.852 C106.121,57.107 106.297,55.869 106.738,54.664 C107.164,53.515 107.635,52.985 108.395,52.481 C108.415,52.481 108.385,52.397 108.385,52.397 C108.385,52.397 105.378,52.845 104.246,56.746 C103.914,57.875 104.336,60.512 104.265,61.548 C104.191,62.569 104.191,63.218 104.191,63.218 L104.289,63.218 Z M113.959,49.704 C113.959,49.704 113.259,49.945 112.231,50.325 C111.228,50.703 110.011,51.309 109.18,52.214 C107.797,53.724 107.444,55.123 107.119,56.257 C106.942,56.873 106.773,57.31 106.773,57.31 C106.773,57.31 109.36,55.255 110.142,54.392 C110.884,53.536 111.778,51.901 112.459,51.243 C113.128,50.579 113.959,49.704 113.959,49.704 L113.959,49.704 Z" id="Fill-11" fill="#FFFFFF"></path>
            <path d="M308.014,72.358 C308.014,112.093 275.784,144.315 236.047,144.315 C196.261,144.315 164.047,112.093 164.047,72.358 C164.047,32.614 196.261,0.346 236.047,0.346 C275.784,0.346 308.014,32.614 308.014,72.358" id="Fill-12" fill="#FFFFFE"></path>
            <path d="M301.868,83.736 L290.9,83.736 L288.268,94.761 L279.281,94.761 L291.503,49.107 L301.985,49.107 L308.022,71.896 C307.775,32.358 275.644,0.332 236.059,0.332 C204.363,0.332 177.476,20.809 167.841,49.228 L173.018,49.228 L173.018,80.92 C173.018,85.592 175.054,88.049 178.648,88.049 C182.242,88.049 184.277,85.592 184.277,80.92 L184.277,49.228 L193.385,49.228 L193.385,80.859 C193.385,90.925 187.211,95.539 178.648,95.539 C173.178,95.539 168.689,93.652 166.153,89.67 C173.908,121.048 202.246,144.315 236.059,144.315 C268.025,144.315 295.125,123.462 304.509,94.62 L301.868,83.736 Z M226.7,94.761 L219.331,94.761 L205.793,67.023 L205.793,94.761 L197.464,94.761 L197.464,49.228 L206.157,49.228 L218.374,75.707 L218.374,49.228 L226.7,49.228 L226.7,94.761 Z M252.558,57.137 L239.856,57.137 L239.856,68.16 L249.767,68.133 L249.767,76.25 L239.856,76.25 L239.856,94.761 L230.81,94.761 L230.81,49.228 L252.558,49.228 L252.558,57.137 Z M265.583,78.465 L265.583,94.761 L256.597,94.761 L256.597,49.228 L267.44,49.228 C277.085,49.228 283.314,54.08 283.314,63.667 C283.314,73.37 277.026,78.344 266.958,78.465 L265.583,78.465 L265.583,78.465 Z" id="Fill-13" fill="#EAEAEA"></path>
            <path d="M267.142,71.215 L265.521,71.215 L265.521,56.478 L267.259,56.478 C272.111,56.478 274.69,58.932 274.69,63.786 C274.69,68.879 272.053,71.215 267.142,71.215" id="Fill-14" fill="#FFFFFF"></path>
            <polyline id="Fill-15" fill="#FFFFFF" points="292.46 76.428 296.414 59.713 300.314 76.428 292.46 76.428"></polyline>
        </g>
    </g>
</svg>